<?xml version="1.0" standalone="no"?>
<!DOCTYPE svg PUBLIC "-//W3C//DTD SVG 1.1//EN" "http://www.w3.org/Graphics/SVG/1.1/DTD/svg11.dtd" >
<svg>
<metadata>
Created by FontForge 20090622 at Sat Nov  9 20:08:25 2019
 By deploy user
&#194;&#169; 2013 Rodrigo Brod - Estudio Frente. Frente Handwritten 01 is licensed under a Creative Commons Attribution-ShareAlike 4.0 International License: http://creativecommons.org/licenses/by-sa/4.0/
</metadata>
<defs>
<font id="FrenteH1-Regular" horiz-adv-x="290" >
  <font-face 
    font-family="Frente H1"
    font-weight="400"
    font-stretch="condensed"
    units-per-em="1000"
    panose-1="0 0 5 6 0 0 0 0 0 0"
    ascent="800"
    descent="-200"
    x-height="802"
    cap-height="798"
    bbox="-38.2 -142 659 952.571"
    underline-thickness="50"
    underline-position="-50"
    unicode-range="U+0020-U+2026"
  />
<missing-glyph horiz-adv-x="250" 
 />
    <glyph glyph-name=".notdef" horiz-adv-x="250" 
 />
    <glyph glyph-name=".null" horiz-adv-x="0" 
 />
    <glyph glyph-name="nonmarkingreturn" horiz-adv-x="333" 
 />
    <glyph glyph-name="space" unicode=" " horiz-adv-x="230" 
 />
    <glyph glyph-name="exclam" unicode="!" horiz-adv-x="182" 
d="M84 80q18 -2 23 1t7 15q2 16 0 33q-2 34 -6.5 102t-6.5 102q-1 11 -1 33q2 144 2 215q2 102 -1 183q0 23 -8 69q-1 9 -10 11.5t-16 -3.5q-10 -8 -6 -19q10 -30 10 -83q3 -158 2 -190q0 -8 1.5 -89.5t-3.5 -89.5q-1 -9 1 -44q11 -181 10 -237q0 -1 0.5 -2t1 -3t0.5 -4z
M132 -38q-2 15 -8.5 22t-19.5 6q-26 0 -24 -29q0 -5 1 -7q5 -22 29 -22q7 -1 13 5.5t8 15.5q1 2 1 5v4z" />
    <glyph glyph-name="quotedbl" unicode="&#x22;" horiz-adv-x="197" 
d="M74 858h-7.5h-7.5h-6q-8 -3 -8 -15q1 -11 1.5 -32.5t0.5 -32.5q-1 -19 -1 -58q0 -10 11 -12q13 -1 19 9q1 3 1 11q-4 78 3 112q0 1 -6 18zM152 858h-7.5h-7.5h-6q-8 -3 -8 -15q1 -11 1.5 -32.5t0.5 -32.5q-1 -19 -1 -58q0 -10 11 -12q13 -1 19 9q1 3 1 11q-4 78 3 112
q0 1 -6 18z" />
    <glyph glyph-name="numbersign" unicode="#" horiz-adv-x="480" 
d="M315 327q4 -37 5 -47q4 -53 -1 -74q-1 -6 8 -20q3 -6 18 -4q1 3 3 8t3 9t0 7q-2 6 -2.5 14t0 14.5t-0.5 14.5q-2 15 -4 43t-2 32q17 8 57.5 4t58.5 -15q2 2 7 4.5t7.5 4t5 5.5t2.5 10q-8 14 -12 19q-3 -1 -8.5 -3.5t-8.5 -2.5q-4 0 -9 0.5t-11.5 1.5t-9.5 1q-9 0 -27 2
t-28 3h-22q-9 93 2 112q10 0 31 2t32 2l17 1q16 1 16 -1q20 -3 30 13q-5 17 -9 19.5t-20 -0.5q-61 -12 -100 -6q4 50 7 75q2 15 -1 21t-16 13q-16 -8 -16 -18q-1 -15 -1.5 -44.5t-0.5 -44.5q-22 -1 -64.5 -2.5t-63.5 -2.5q-2 18 -2 27q-1 18 -1 56q-1 8 -6 13.5t-12 4.5
q-15 -2 -13 -21q0 -5 0.5 -15.5t1.5 -15.5q0 -8 1.5 -26t2.5 -27q-5 0 -13 -0.5t-11 -0.5q-59 0 -88 1q-18 0 -27 -1q-12 -2 -9 -14q4 -15 16 -16q43 -5 106 4q2 0 8.5 2t11.5 1.5t9 -3.5q7 -50 2 -120q-6 -2 -7 -2q-19 -1 -57.5 -2.5t-57.5 -1.5q-7 -1 -13 -6t-7 -10
q0 -18 18 -20h8q55 8 89 11q19 2 22.5 -1.5t3.5 -24.5q0 -27 3 -53q3 -13 11 -13q9 0 16 9q4 8 0 17q-4 11 -5 22.5t-0.5 26.5t0.5 22q25 -2 67.5 2.5t59.5 4.5zM315 471v-116q-107 -8 -126 -7q7 54 -2 120q11 6 60 7.5t68 -4.5z" />
    <glyph glyph-name="dollar" unicode="$" horiz-adv-x="310" 
d="M217 266q18 -78 14 -153q-3 -47 -39 -73q-4 -4 -12.5 -9t-12.5 -8q-7 -6 -19 -10q0 -34 -1 -51q0 -16 -12 -17q-14 -2 -18 16v9q1 14 1 41q-7 2 -26 10q-3 1 -7.5 3.5t-7.5 3.5q-23 9 -28 38q-4 25 -4 57q-1 14 1 44q9 7 10 7q7 3 13.5 0t7.5 -10q1 -9 -1 -26
q0 -46 5 -63q8 -25 37 -32q0 50 4 74q0 3 0.5 7t0.5 6q-2 43 3.5 123t4.5 115v28v29v23q-4 12 -14 34l-11.5 29l-13.5 34.5l-11 29.5q-6 14 -23 69q-7 32 10 79q12 31 47 34l10 2q-1 1 -1 2q-2 6 -2 22q0 19 13 21t18 -15q2 -6 2 -13l1 -17q2 0 4 -0.5t4 -0.5q35 -4 55 -44
q17 -31 11 -68q-2 -13 -12 -13q-15 -2 -18 11q-2 9 -2 26q0 38 -31 55l-9 4q4 -60 2 -91q-1 -15 0 -44t1 -38q0 -12 -1 -35t-1 -34v-24q1 -3 2 -7.5t2 -6.5l20 -62l3 -14.5t4 -14.5q7 -16 27 -92zM93 636q5 -15 26 -71q8 -18 15 -38q0 26 -0.5 55t-1.5 64.5t-1 55.5l-1 28
q-29 -7 -38 -35q-9 -30 1 -59zM196 96q9 42 5 72q-6 76 -27 144l-17 58q-4 -89 -5 -130q-2 -66 -4 -194l6 4q17 11 33 29q6 8 9 17z" />
    <glyph glyph-name="percent" unicode="%" horiz-adv-x="580" 
d="M483 687q-14 7 -19 6t-12 -14q-12 -22 -18 -34l-38 -63q-6 -10 -18.5 -26.5t-16.5 -22.5l-53 -84l-46 -68l-14.5 -23l-14.5 -23l-52 -70q-15 -21 -43 -65l-45 -66q-12 -19 -24 -31q-10 -10 -8 -18q3 -14 17 -15q16 0 17 11q0 2 4 6l55 87l50 78q8 13 29 40.5t30 42.5
q11 19 35 53.5l32 46.5l104 157l44 68q10 15 5 27zM267 497l7 20q15 33 11 62q-7 41 -42 68q-9 6 -22.5 17t-16.5 13t-13 5t-20 1.5t-28 -5.5q-49 -11 -45 -150q6 -66 64 -84q3 -1 12 -3.5t14 -3.5q39 -6 54 14q23 32 25 46zM253 534l-14 -37q-12 -26 -37 -30.5t-47.5 11.5
t-27.5 44q-1 13 -0.5 32.5t1.5 43.5l2 25q1 23 23 27q19 7 37 1t46 -35q35 -35 17 -82zM318 312l-8 -20q-15 -33 -11 -62q8 -42 41 -68l22.5 -17.5t16.5 -12.5t13 -5.5t20 -2t28 5.5q49 11 46 150q-5 66 -63 84q-5 1 -13.5 4t-12.5 4q-39 6 -54 -14q-23 -32 -25 -46z
M331 275l15 37q12 26 37 30.5t47 -12t27 -44.5q2 -11 -0.5 -52.5t-3.5 -48.5q-1 -23 -23 -27q-19 -7 -37 -0.5t-45 35.5q-35 35 -17 82z" />
    <glyph glyph-name="ampersand" unicode="&#x26;" horiz-adv-x="440" 
d="M173 430q-61 -81 -79 -108q-41 -62 -46 -103q-6 -47 1 -65q1 -4 30 -64q4 -8 10 -14.5t14 -13t12 -10.5q42 -49 99 -14q52 33 79 64q6 6 36 29q3 -6 10 -24t12 -27l23 -44q5 -9 12 -10.5t11 4.5q14 19 2 34q-10 12 -17.5 27.5t-15 35t-12.5 28.5l33 61q22 42 19 72
q-2 22 -6 41q-9 40 -41 68q-8 8 -16 2.5t-8 -19.5v-20q8 -7 19 -14q11 -9 18.5 -33.5t3.5 -39.5q-6 -31 -41 -81l-33 72l-14 24t-11 19q-1 2 -3.5 6.5t-4.5 6.5q-25 34 -56 103q29 44 35 51q13 16 27 56q21 57 24 109q4 37 2 55q-1 8 -5.5 23t-5.5 22q-3 14 -16 27
q-20 22 -65 24q-4 0 -8 -2q-26 -10 -51 -32q-30 -27 -34 -69q-7 -58 4 -92q10 -32 13 -49q4 -19 9.5 -36t16.5 -44.5t14 -35.5zM196 459q-1 4 -10.5 23.5t-11.5 32.5q-2 11 -10 31t-10 30q-17 61 -13 91q6 42 31 60q35 26 61 18q18 -4 26 -26q17 -42 8 -88q-5 -31 -21 -91
q-4 -16 -19 -40.5t-31 -40.5zM191 397l41 -80l24.5 -41.5t27.5 -48.5q2 -4 28 -61q-28 -28 -42 -40q-10 -9 -29.5 -24.5l-25.5 -20.5q-21 -16 -45.5 -13t-44.5 22q-22 21 -41 64q-13 26 -4 69q8 40 41 83q5 7 70 91z" />
    <glyph glyph-name="quotesingle" unicode="'" horiz-adv-x="109" 
d="M84 858h-21q-8 -3 -8 -15q1 -11 1.5 -32.5t0.5 -32.5q-1 -19 -1 -58q0 -10 11 -12q13 -1 19 9q1 3 1 11q-4 78 3 112q0 1 -6 18z" />
    <glyph glyph-name="parenleft" unicode="(" horiz-adv-x="242" 
d="M202 834q0 4 -1 5q-7 16 -18 16q-3 0 -6 -1.5t-4 -3.5t-3 -5t-2 -4q-25 -45 -33 -72q-3 -13 -12 -38t-11 -31q-1 -5 -7 -25.5t-8 -32.5q-12 -61 -22 -136q-8 -62 -9 -95q-2 -107 7 -182q8 -67 27 -118q32 -92 50 -137q7 -16 13.5 -19t23.5 1q11 21 -2 37q-14 18 -31 68
q-18 50 -22 60q-19 40 -29 131q-3 30 -5 84q-2 46 0 69l6 59l6 58q2 40 26 143q6 29 17 57q23 76 49 112z" />
    <glyph glyph-name="parenright" unicode=")" horiz-adv-x="252" 
d="M50 -21q0 -3 1 -4q8 -17 18 -17q7 0 14 15q26 43 32 70q1 5 22 67q1 5 7 25.5t8 32.5q12 64 21 132q8 59 9 93q2 104 -7 179q-8 63 -26 116q-27 79 -49 133q-6 16 -12.5 19.5t-22.5 -1.5q-11 -20 2 -36q14 -18 30 -67q11 -37 21 -59q18 -40 28 -128q3 -28 5 -82
q2 -46 0 -67q-2 -20 -6.5 -58t-5.5 -57q-3 -45 -25 -140q-5 -22 -16 -56q-22 -72 -48 -110z" />
    <glyph glyph-name="asterisk" unicode="*" horiz-adv-x="250" 
d="M41 713h27l2 -4q-15 -13 -28 -28q-12 -13 -1 -24q11 -9 24 4q13 15 30 30q1 -1 1 -3l1 -2v-27q3 -15 4 -17q8 -20 24 -2q3 4 3.5 8t0 6.5t-2 7.5t-1.5 7q-2 7 -2 41l10 -6q5 -4 14.5 -12.5t14.5 -12.5q12 -10 21 -5q8 2 10 11q0 15 -12 20q-5 3 -11 7q1 0 1 2
q12 -2 36 -4q14 32 -19 32q-2 0 -7.5 -0.5t-8.5 -0.5l-21 3q9 6 13 10q15 15 2 28q-13 11 -26 -5q-12 -14 -20 -15v3.5v4.5v3q1 21 -5 43q-5 14 -18 11q-11 -3 -8 -17q2 -14 1 -23q-5 2 -11.5 6.5t-11.5 7.5t-11.5 3t-13.5 -6q4 -22 11 -24q10 -3 24 -15.5t18 -15.5
q-43 -4 -61 0q-14 3 -16.5 1t-7.5 -16q10 -17 31 -15z" />
    <glyph glyph-name="plus" unicode="+" horiz-adv-x="330" 
d="M313 352q1 -2 0 -6t-1 -7q-15 -3 -16 -3q-42 6 -95 3l2 -38q1 -13 5 -39q2 -23 -21 -32h-3t-4.5 0.5t-5.5 0.5q-3 15 -3 16q5 36 1 90l-33 -2q-11 0 -30 -4t-25 -5q-10 -2 -17.5 4.5t-6.5 15.5q0 11 9 15q3 1 25 4l75 2q-1 7 -2.5 19t-1.5 18q-1 11 -5.5 30.5t-5.5 24.5
q-2 9 4.5 17t15.5 7q12 0 15 -8q2 -4 3 -13t2 -12l5 -82q7 0 22 1t22 1l39 3q10 1 19 -5t12 -16z" />
    <glyph glyph-name="comma" unicode="," horiz-adv-x="122" 
d="M52 27q-1 -4 -1.5 -11.5t-0.5 -11.5q-5 -30 -31 -82l-18 -36q-3 -6 2 -13q1 -1 6 -0.5t6 2.5q50 59 65 125q1 3 1 25q-1 0 -5.5 3t-6 3t-5 1t-6.5 -0.5t-6 -4.5z" />
    <glyph glyph-name="hyphen" unicode="-" horiz-adv-x="203" 
d="M45 355q42 2 55 2q38 2 58 2q9 0 25 -4q5 -1 8 -8.5t1 -13.5t-7 -9t-10 -1q-37 12 -105 0q-8 -2 -17 0q-16 2 -13 18q1 3 5 14z" />
    <glyph glyph-name="period" unicode="." horiz-adv-x="144" 
d="M77 52q-11 0 -19 -7t-8 -16q1 -9 10.5 -19t18.5 -10q11 0 18.5 10.5t6.5 23.5q-2 20 -27 18z" />
    <glyph glyph-name="slash" unicode="/" horiz-adv-x="282" 
d="M40 -40q1 -1 5.5 -7t7.5 -7q18 -14 25 10q2 3 4 12t3 12q4 19 10.5 56.5l9.5 54.5q19 78 19 79q7 33 24.5 93.5l22.5 78.5q11 47 29.5 134l25.5 120l39 185q6 31 7 44q2 14 -4 26q-10 18 -28 2q0 -1 -1 -6t0 -5q-3 -28 -8.5 -57t-13 -63.5l-11.5 -53.5l-17.5 -80
t-19.5 -102q-22 -120 -59 -234q-35 -130 -38 -145l-14.5 -68.5t-17.5 -78.5z" />
    <glyph glyph-name="zero" unicode="0" horiz-adv-x="341" 
d="M330 457q2 -162 0 -242q-3 -83 -19 -146q-9 -36 -37.5 -59t-61.5 -20q-57 7 -91 39q-31 29 -31 69v102l-4 92t-5 108q0 15 -1 32t-2.5 38t-2.5 32q0 8 -2 22q0 5 -1 13.5t-1.5 15t-0.5 12.5q8 73 14 113q7 38 37 87q12 19 38 32q2 1 5 1t5 0.5t3 2.5q2 3 4.5 5t5.5 3.5
l5 2.5t5.5 0.5t5.5 0t5.5 -0.5t5 -1.5l6 -2t5.5 -1.5q35 -10 57 -24q49 -32 51 -100q2 -76 2 -226zM117 677q-23 -106 -11 -168v-10.5t1 -11.5q2 -48 8 -144l6 -144v-61l10 47q9 50 31 112q34 120 43 183q4 25 14.5 72.5t14.5 68.5q2 13 8 40.5t9.5 50t3.5 43.5v2
q-6 4 -18.5 10t-15.5 8q-4 2 -13 0l-15 -6t-14 -5q-20 -4 -34 -23q-22 -27 -28 -64zM300 244q-1 3 -1 11q0 15 1.5 41.5t1.5 48.5t-3 42v15v53v34q2 64 1 98q0 10 -1.5 31.5t-1.5 32.5q0 6 -0.5 18.5t-0.5 18.5q0 22 -9 38l-3 -16q-6 -27 -16 -77.5l-13 -66.5
q-2 -12 -17 -84.5t-24 -110.5q-6 -25 -19.5 -71l-18.5 -64q-6 -25 -13 -62q-9 -43 -15 -85q0 -2 -6 -19q-2 -7 -6 -8q12 -15 32 -24q18 -8 47 -12q24 -4 35 9q35 37 39 74q1 14 5 42t6 50t0 43z" />
    <glyph glyph-name="one" unicode="1" horiz-adv-x="255" 
d="M166 737q0 -3 1.5 -7.5t1.5 -6.5q0 -39 1.5 -118.5t2.5 -119.5q0 -175 -1 -197t-0.5 -73t-1.5 -73q-1 -9 -1 -26q2 -37 -9 -97l2 -9q8 -4 23 -10q15 26 15 41l3 194v44q0 32 -0.5 133t-1.5 156q-2 157 4 224q-2 1 -6.5 2.5l-7.5 2.5t-6 1q-11 -2 -21 -12l-18 -18.5
t-21 -19.5q-9 -5 -80 -63q-2 -2 -3 -5.5t-2 -4.5q10 -17 25 -16q61 59 101 78z" />
    <glyph glyph-name="two" unicode="2" horiz-adv-x="320" 
d="M97 52q2 5 5.5 15.5t5.5 14.5l30 70l21 55q13 33 24 69l42 132q15 37 38 107.5l27 82.5q19 51 20 104q0 32 -12 60q-13 31 -41 45t-61 7q-49 -10 -81 -51q-17 -25 -17 -27q-7 -29 -15 -87v-7q2 -15 18 -15q13 0 15 13l3 29t4 29q5 35 28 56.5t57 27.5q29 6 49 -17
q23 -28 21 -68q-1 -55 -23 -107q-16 -46 -22 -70q-4 -17 -18 -51q-23 -57 -34 -97q-18 -66 -41 -132q-3 -10 -39 -103q-2 -6 -8 -16t-7 -13l-16.5 -38t-14.5 -32q-5 -12 -5 -21q-1 -6 4.5 -11.5t11.5 -5.5q3 0 11 2q66 10 101 10q19 0 84 7q16 4 27 9q9 7 7 16
q-1 3 -4.5 7.5t-6.5 4.5q-15 1 -32 -2l-25.5 -3.5t-29.5 -3.5q-23 -2 -69 -4q-24 0 -32 9z" />
    <glyph glyph-name="three" unicode="3" horiz-adv-x="311" 
d="M92 181q-22 3 -28 -1.5t-2 -21.5q7 -36 5 -58q-2 -16 9 -54q7 -24 34 -36q28 -13 54 -9q2 1 21 5t28 7q9 1 17 8q56 49 55 110q0 7 0.5 23t-0.5 24q0 14 1 42t0 50.5t-5 42.5q-1 5 1 26q0 6 1 19.5t1 20.5q0 39 -26 66l-12 13q4 7 5 7q28 16 30 55q2 63 7 113q7 49 -4 87
q-11 42 -27 56t-58 15q-4 0 -26 -2q-8 -1 -16.5 -4.5t-19 -8.5t-15.5 -7q-46 -21 -61 -81q-5 -21 8 -35q6 -6 13 -4q7 0 10 8q2 6 2 18q3 34 25 52q45 37 102 28q14 -2 20 -14q13 -27 13 -33q5 -27 3 -55q-1 -10 -4 -52t-3 -65q0 -38 -35 -59q-5 -3 -14 -7.5t-12 -6.5
q-12 -4 -17 -7q-7 -4 -6.5 -14t7.5 -14q8 -4 18 -4q4 0 14 1t15 0q13 -3 16 -7q16 -23 16 -44q-1 -52 -1 -157q0 -82 -1 -99q-3 -53 -45 -75q-35 -17 -78 -5q-17 5 -20 21q-6 43 -6 47q0 53 -9 75z" />
    <glyph glyph-name="four" unicode="4" horiz-adv-x="316" 
d="M250 202h-150q32 108 36 120q27 90 28 143l3 18l27 155q2 12 7.5 49.5t11.5 63t16 48.5q4 6 -1 13q-5 8 -14 10q-5 2 -12 -6q-4 -4 -6 -13q-14 -53 -17 -67q-4 -24 -11 -72.5t-11 -72.5l-9 -49.5t-8 -47.5q-1 -5 -4 -36.5t-7 -47.5q-12 -51 -42 -151q-3 -9 -23 -50
q-14 -26 12 -35q32 -9 54 -6q40 8 102 -1q4 -1 10.5 -3.5t9.5 -3.5v-35l-3 -109q0 -11 13 -15q14 -5 18 8q7 21 7 36v138v3.5v4.5v3q-1 5 -1 55q2 92 1 110q-4 64 5 131q2 16 4 44q0 16 -14 18q-14 0 -17 -16v-8q-14 -113 -7 -189q5 -50 -8 -137z" />
    <glyph glyph-name="five" unicode="5" horiz-adv-x="319" 
d="M97 105q0 -4 1.5 -21.5t3.5 -26.5q5 -32 15 -50q9 -22 30.5 -33t44.5 -6q47 9 75.5 43t24.5 79q0 1 3 50q1 12 2 35.5t2 35.5v35v42.5v36.5q-1 6 -1.5 19t-0.5 19q-12 93 -13 114q-4 40 -40 73q-17 12 -32 8q-49 -8 -69 -18q-3 -2 -10.5 -5.5l-13.5 -6.5v46
q-5 64 -10 106q-4 53 1 80q87 29 151 -9q30 19 21 44q-8 1 -24 3.5t-24 3.5q-42 7 -83 3q-23 -3 -69 -5q-1 0 -3 -0.5l-4 -1t-3 -1.5q-8 -3 -11.5 -11t2.5 -13q8 -11 10 -37q0 -22 3 -43q16 -140 7 -211q-2 -10 4 -19q2 -8 10 -10.5t13 2.5q10 10 22 28q14 23 39 29
q23 8 25 9q19 4 33.5 -5.5t17.5 -28.5q16 -128 17 -144q1 -9 1 -106q0 -11 0.5 -31t0 -36.5t-3.5 -30.5q-2 -18 -2 -55q1 -32 -19.5 -53.5t-53.5 -27.5q-25 -5 -38 19q-15 24 -15 43q0 17 -3 32q-3 29 -34 8z" />
    <glyph glyph-name="six" unicode="6" horiz-adv-x="348" 
d="M105 449q-2 30 -2 37q1 27 1.5 80.5t0.5 80.5q1 28 8 65q5 29 29 40q22 13 25 15q26 12 54.5 -0.5t37.5 -39.5q2 -4 4 -12.5t2 -9.5q5 -12 18 -10q11 1 11 17q1 25 -15.5 50t-39.5 34q-60 23 -118 -16q-34 -22 -39 -55q-8 -43 -8 -50q-5 -154 -4 -198q0 -12 2.5 -64.5
t1.5 -81.5q0 -13 3 -26q6 -31 4 -94q0 -43 4 -129q0 -22 12 -37q26 -33 82 -54q8 -3 29 -1q52 3 79 39q25 29 27 42q15 81 20 178q0 3 -1 11.5t0 13.5q11 67 -2 127q0 2 -5.5 21t-6.5 29q-3 40 -43 58q-27 12 -34 14q-31 10 -49 -4q-8 -7 -40.5 -29t-47.5 -41zM303 343
q0 -10 1 -15q3 -30 -4 -126q-4 -50 -20 -123q-11 -49 -72 -58q-4 0 -35 8q-5 2 -14.5 7t-12.5 6q-23 10 -28 39q-9 56 -5 139q2 52 -5 94l-3 33q0 27 12 40q8 9 17 36q11 27 34 42l15.5 10t19.5 11q21 11 48.5 0.5t34.5 -32.5q21 -70 17 -111z" />
    <glyph glyph-name="seven" unicode="7" horiz-adv-x="306" 
d="M120 6l35 124q2 8 4.5 25t4.5 25l34 131l33 124l30 120q2 8 10 58q0 1 1 10.5t2 14.5q20 100 31 150q3 16 -3 22.5t-22 4.5q-70 -9 -98 -7q-22 2 -61 3t-52 2q-15 0 -18 -10q-5 -16 13 -23q6 -3 14 -3h40q3 0 16.5 1.5t16.5 -0.5q27 -5 91 -1q5 0 14 -1.5t12 -1.5v-8.5
t-1 -7.5q-15 -60 -26 -159q-2 -17 -10 -46q-7 -32 -32 -128l-17 -67l-20.5 -79t-19.5 -66q-8 -26 -10 -39q-8 -57 -41 -139q-7 -21 4 -31q8 -8 25 2z" />
    <glyph glyph-name="eight" unicode="8" horiz-adv-x="315" 
d="M213 514q3 4 11 16t13 18q22 28 43 88q2 10 2 14q0 7 -2 30t-2 36q-1 30 -24.5 58.5t-53.5 37.5q-32 9 -67 -3t-53 -35q-2 -2 -10 -15q-5 -10 -7.5 -20.5t-2.5 -24.5v-20.5t2 -24.5t2 -22q0 -1 5 -9q31 -68 73 -104q4 -4 15 -18q-19 -24 -31 -41q-15 -23 -21 -38
q-18 -47 -25 -125q-9 -105 1 -223q3 -31 17 -55q22 -44 73 -46q9 0 29 2t29 2q23 -1 40 15t19 43q0 8 1 25t1 26v59q12 118 -3 237q-8 68 -55 103q-12 8 -19 14zM94 696v27q5 39 37 50q5 1 15.5 5t15.5 5q26 6 55.5 -17.5t29.5 -50.5q0 -8 1 -33.5t0 -39.5q-1 -13 -10 -27
q-18 -33 -39 -66q-12 -17 -25 -4q-5 6 -23.5 26.5t-29 35t-17.5 31.5q-13 34 -10 58zM185 492q56 -26 65 -82q13 -73 13 -134q1 -36 -3.5 -102.5t-4.5 -94.5q0 -38 -10 -48t-49 -13q-31 0 -40 4q-32 13 -41 56q-2 15 -4 47q-2 68 -4 102q-2 53 19 170q5 26 24 57q4 6 9.5 12
t13.5 13.5t12 12.5z" />
    <glyph glyph-name="nine" unicode="9" horiz-adv-x="318" 
d="M90 173q-15 -2 -21 -6.5t-7 -14.5q-9 -65 14 -111q23 -49 70 -58q20 -4 51 0t44 18t19 42q11 45 14 105q5 113 3 189q0 20 1 79t-1 78q-1 11 -2 41.5t-2 44.5t-2.5 40.5t-3.5 44t-5.5 40.5t-8.5 43q-6 24 -17 40q-15 21 -37 20q-46 -3 -47 -3q-33 -4 -50 -34
q-31 -54 -31 -107q0 -19 0.5 -57t0.5 -57q0 -20 15 -63q10 -25 44 -36q9 -4 51 -6q36 -2 57 19q0 1 2 0.5t5 -1.5q2 -27 2 -32q0 -14 -2.5 -70.5t-1.5 -86.5q1 -32 -6 -161q-4 -58 -19 -88q-75 -37 -114 28q-9 18 -9 27q-2 20 -2 62q0 2 1 9.5t0 12t-5 9.5zM233 679
q5 -45 5 -55q0 -63 -4 -94q-2 -27 -18.5 -42.5t-44.5 -12.5q-2 0 -6 0.5t-5 0.5q-32 4 -41.5 15t-16.5 47v47q0 24 -1 29q-5 35 9 101q4 19 16 37q15 22 47 24q26 2 36 -6t14 -34l9 -47q0 -7 1 -10z" />
    <glyph glyph-name="colon" unicode=":" horiz-adv-x="138" 
d="M67 488q-13 0 -22 -7.5t-9 -17.5q1 -10 12 -21t21 -11q12 0 21 11.5t7 25.5q-2 22 -30 20zM68 148q-13 0 -22 -7.5t-9 -17.5q1 -11 12 -21.5t21 -10.5q12 0 20.5 11.5t7.5 26.5q-2 21 -30 19z" />
    <glyph glyph-name="semicolon" unicode=";" horiz-adv-x="158" 
d="M105 159q15 14 12 20q-10 23 -26 20q-9 0 -11 -8q-2 -12 2 -16q3 -3 23 -16zM10 -107q5 1 12 1.5t9 1.5q11 8 18 18l20 33.5l23 39.5t17 35q5 12 4 17q-2 11 -9 14q-8 2 -17 -4q-4 -2 -6 -12q-12 -34 -49 -106q-3 -6 -10.5 -18t-11.5 -20z" />
    <glyph glyph-name="less" unicode="&#x3c;" horiz-adv-x="710" 
d="M140 396q15 8 49 12q36 2 62 7q28 5 137 22.5t167 31.5q52 11 70 29q9 10 -9 10q-9 1 -22 -1q-21 -3 -58.5 -11.5t-49.5 -10.5l-196 -29q-40 -8 -46 -8q-24 -1 -50 -4.5t-62 -9.5t-49 -8q-13 -1 -26 -8q-16 -5 -16 -20q1 -12 17 -20l11 -3q91 -22 112 -26l141 -20
q27 -4 82 -13t83 -13q8 -1 23.5 -2t22.5 -2q25 -2 75 -8q6 -1 23.5 -5.5t27.5 -6.5q0 11 -1.5 18t-3 11t-7.5 6.5t-9.5 3.5t-14 2t-16.5 2q-53 8 -63 8q-35 1 -90 10q-112 18 -169 26l-25.5 5t-31.5 5q-40 1 -88 20z" />
    <glyph glyph-name="equal" unicode="=" horiz-adv-x="370" 
d="M342 339q0 3 1 7t0 6q-3 10 -12 16t-19 5q-4 0 -12 -1t-14.5 -1.5t-12.5 -0.5q-25 -1 -74.5 -2.5t-74.5 -2.5q-22 -3 -25 -4q-9 -4 -9 -15q-1 -9 6.5 -15.5t17.5 -4.5q6 1 25 5t30 4q9 1 37.5 3t42 2.5t36 -0.5t41.5 -4q1 0 16 3zM343 189q0 3 1 7t0 6q-2 10 -10.5 16.5
t-18.5 5.5q-7 0 -20 -0.5t-19 -0.5l-150 3q-3 0 -8 -0.5t-9.5 -1t-7.5 -1.5q-9 -2 -9 -14q-2 -9 5 -15.5t17 -5.5q7 0 26 3.5t30 2.5q10 0 37.5 0.5t41.5 0.5t36.5 -2t41.5 -6q2 -1 16 2z" />
    <glyph glyph-name="greater" unicode="&#x3e;" horiz-adv-x="700" 
d="M556 371q-15 -8 -49 -12q-36 -2 -62 -7l-134 -22.5t-170 -32.5q-52 -11 -70 -29q-9 -10 9 -10q9 -1 22 1q21 3 58.5 11.5t49.5 10.5q17 3 196 30q40 8 46 8q33 1 161 23q13 1 26 8q16 5 16 20q-1 12 -17 20l-11 3q-14 3 -52.5 12t-60.5 13l-141 20l-165 25q-7 1 -22.5 2
t-23.5 2q-25 2 -75 8q-6 1 -23.5 5.5t-27.5 6.5q0 -11 1.5 -18t3 -11t7.5 -6.5t9.5 -3.5t14 -2t16.5 -2q53 -8 63 -8q35 -1 90 -10l82.5 -12.5t86.5 -12.5q4 -1 25.5 -5t32.5 -5q40 -1 88 -20z" />
    <glyph glyph-name="question" unicode="?" horiz-adv-x="284" 
d="M49 676q13 13 15 17.5t2 17.5q1 68 65 85q27 8 54.5 -6t34.5 -39q23 -78 -2 -136l-70 -165q-40 -88 -43 -180q-1 -17 -1 -99v-25q-1 -26 0 -26q0 -24 2 -36q1 -8 7 -13t13 -4q13 0 13 19q0 8 -1 25t-1 26q0 87 1 131q0 14 4 40q0 5 2 14.5l3 14.5q0 25 11 50l86 205
q17 50 19 70q4 47 -17 108q-10 31 -33 42q-48 26 -92 15q-48 -13 -71 -48.5t-19 -84.5q1 -11 18 -18zM98 -45q14 -15 18 -18t14 -4q31 -6 38 23q5 19 -14 26q-13 5 -35 -2q-17 -6 -21 -25z" />
    <glyph glyph-name="at" unicode="@" horiz-adv-x="470" 
d="M372 276q-5 1 -11 -4t-7 -11q-3 -18 -30 -37q-40 -27 -81 -17q-18 4 -43 11q-67 17 -96 46q-22 24 -32 54q-19 64 21 148t114 111q36 9 73.5 -3.5t54.5 -39.5q24 -33 30.5 -54t5.5 -81q0 -22 -5.5 -34t-25.5 -22q-24 -10 -41 7q-15 13 -6 38q3 8 3 17q4 40 -30 76
q-27 30 -58 18q-15 -5 -30 -19q-33 -27 -30 -65q2 -23 11 -45q10 -23 30.5 -33.5t44.5 0.5q1 1 4 2t4 2q13 7 24 -5q18 -21 42 -24q32 -2 45 3q32 15 42 51.5t1 119.5q-6 29 -41 76q-23 30 -62 38q-8 2 -14 4q-28 11 -61 5q-44 -7 -77.5 -29.5t-53.5 -54t-31 -61t-17 -62.5
q-12 -71 8 -115q11 -23 36 -43q35 -28 51 -34l15.5 -6t16.5 -5q58 -21 94 -24q48 -5 94 36q23 21 29.5 39t-11.5 26zM246 375q-23 -15 -43 -10q-8 2 -13 8q-22 40 -4 71q10 15 24 25q23 14 40 -10q15 -23 13 -49t-17 -35z" />
    <glyph glyph-name="A" unicode="A" 
d="M249 108l2.5 -17t1.5 -12q4 -41 7 -65q2 -15 18 -15q6 -1 11.5 3.5t6.5 11.5q0 12 -1 18q-4 25 -14 75q-8 38 -11 57l-24 170q-19 144 -26 203q-2 14 -6.5 58.5t-7.5 68.5q-9 60 -7 83q0 10 -9 35q-2 6 -9.5 8t-12.5 -2q-24 -14 -26 -45q-10 -120 -13 -142
q-4 -34 -13 -96t-12 -85l-28 -188l-13 -79q-2 -13 -7 -39.5t-7 -39.5l-9 -47q-3 -17 14 -22q17 -3 21 14q7 42 10 58l6 25q21 -1 74 5.5t84 0.5zM169 672q8 -21 8 -23q2 -16 3.5 -34t3 -39t2.5 -33l4.5 -36.5l5.5 -42.5t5 -37q3 -23 10.5 -75l11.5 -80q3 -18 8 -54t8 -54
v-17l-87 -9q-22 -2 -33 -1q-5 1 -22 8q-2 19 -1 27t4.5 25t4.5 25q3 24 10 68t9 58q2 15 5.5 43.5l6.5 51.5t6 43q2 13 7 38t7 37q0 3 13 111z" />
    <glyph glyph-name="B" unicode="B" horiz-adv-x="280" 
d="M85 810q-26 -22 -30.5 -30t-4.5 -35q0 -46 2 -136q0 -14 3 -58.5t2 -69.5q-1 -28 0 -80t0 -94t-6 -79q-1 -9 -1 -22q-2 -93 -8 -139q-3 -33 0 -41.5t25 -29.5q1 -1 9 -4l6 1q5 1 8 3q48 21 94 44q3 2 18 17q13 14 15 46l3 146v43q0 16 -10 29q-21 27 -37 33q-4 1 -8 3.5
t-8.5 6t-7.5 5.5q0 2 1 3v1l8 8q48 35 59 105q3 17 3.5 36.5t0 35.5t0.5 36q0 65 -6 92q-13 60 -67 88q-6 3 -34 19q-4 2 -29 17zM96 383q-12 15 -8 38q2 27 2 39.5t-2 39.5t-2 39q-1 64 -1 192q0 24 9 37q41 -20 62 -37q28 -25 30 -83q1 -72 0 -142q-1 -31 -16 -63
q-13 -23 -30 -34q-6 -4 -21 -12.5t-23 -13.5zM82 32q-12 8 -10 29q6 50 10.5 143.5t8.5 134.5q0 1 3 5q18 3 22 1q23 -9 51 -26q21 -13 21 -41q-1 -26 -1 -76v-75q0 -17 -3 -31q-5 -24 -25 -34q-35 -18 -77 -30z" />
    <glyph glyph-name="C" unicode="C" 
d="M62 172h-2q3 -63 2 -76q0 -40 26 -66q45 -46 94 -41q54 7 67 61q1 6 3 17t3 16q3 11 5 41.5t9 46.5q4 9 -2.5 17t-15.5 9q-16 3 -19 -18q-5 -65 -6 -71q-2 -31 -5 -46q-9 -33 -37 -38q-13 -2 -35 4q-52 18 -56 75q-3 18 -3 40q0 15 1 43t1 43q0 22 -1.5 62.5t-1.5 74
t3 63.5q2 37 4 109q3 89 2 97q-3 38 6 85q3 17 15 28q16 14 18 15q28 19 57 -1q27 -24 28 -60q0 -24 1 -38q2 -17 18 -15q15 2 14 17q0 42 -3 64q-2 19 -29 57q-12 15 -30 20q-43 9 -79 -16q-42 -31 -44 -71l-3 -20.5t-2 -19.5q0 -9 1 -32.5t0 -35.5q0 -13 -0.5 -52
t-1.5 -61q0 -1 -3 -121q-1 -49 -1 -150q0 -18 2 -56z" />
    <glyph glyph-name="D" unicode="D" horiz-adv-x="310" 
d="M70 11q1 0 7 -1t9 -2q2 -1 6 -4t7 -5q9 -3 13 -2q81 12 126 61q33 33 32 74q-6 195 3 306v13q0 29 -1 84.5t-1 82.5q0 33 -16 76q-15 37 -60 68q-17 11 -52.5 24.5t-51.5 22.5q-2 1 -7 0t-7 -3q-18 -28 -17 -36q2 -65 4 -79q8 -44 4 -120q-2 -104 0 -138q8 -91 6 -135
q-1 -9 0 -25.5t1 -21.5v-63l-3.5 -33t-3.5 -37q-1 -15 -1.5 -31t-1 -35.5t-0.5 -30.5q0 -1 1 -2.5t2 -3.5zM99 38q-5 77 1 129q2 21 2 124v39q0 63 -4 85q-5 23 -3 57q7 113 -2 234q0 51 1 58q3 -1 11 -3t11 -4q21 -7 43 -18q74 -33 79 -121q2 -36 4 -110q0 -7 0.5 -21.5
t0.5 -20.5q0 -5 1 -20t0 -23q-1 -15 -3.5 -57.5t-3.5 -66.5q-1 -46 1 -138v-32q0 -29 -19 -46q-44 -43 -105 -49q-2 0 -15 4z" />
    <glyph glyph-name="E" unicode="E" 
d="M95 42h13q22 2 37 4q6 0 9 1h16h6h13q22 0 35 4q2 0 5 0.5t5.5 1t4.5 1.5h3h2q15 0 17 -14t-4 -23q-5 -13 -17 -13q-1 0 -7 2q-3 2 -9 2q-5 0 -15 -2l-1 -1q-2 0 -3 -1q-6 -2 -9 -2q-2 0 -2 1q-6 1 -20 1q-10 0 -32 -2t-31 -2h-5q-15 0 -36 3q-6 1 -11 8.5t-5 15.5v5v1
q1 1 1 2q6 46 4 126q0 9 2 29l2 20v25q2 56 6 110q3 28 -1 63q-4 69 -2 205v23q0 46 -3 88q-1 6 -1 18t-1 18q0 5 -1 8q0 3 -0.5 9t-0.5 8q1 5 5.5 11t8.5 6h1q9 0 21 3q4 0 12 0.5t12 0.5h10q27 -3 56 -3q8 -1 26 -1h5q3 0 8 -0.5t8 -1.5q7 -1 12 -10q5 -6 3 -14
q-5 -18 -18 -18h-5q-21 7 -51 7h-24q-14 -2 -29 0q-2 0 -4 1h-2q-9 0 -16 -5v-20v-51v-42q0 -21 -1 -33v-2v-72q0 -34 1 -51v-19q14 0 20 1q40 4 59 5q4 0 7 1q2 0 6 0.5t5 0.5q13 0 22 -9l2 -2v-2q-5 -35 -23 -35q-1 0 -13 2q-12 3 -30 3q-23 0 -55 -9v-3q8 -50 0 -135
q-3 -39 -3 -82v-117v-48z" />
    <glyph glyph-name="F" unicode="F" horiz-adv-x="280" 
d="M90 430q75 4 103 5q8 21 5 27q-5 12 -23 10l-39 -6q-24 -5 -47 9q-9 174 -3 291q27 8 65 3q48 -8 86 -7q4 0 12 -1.5t10 -1.5q23 -6 29 19q2 7 -2 12.5t-10 5.5q-7 0 -23 -2q-41 -5 -82 3q-27 5 -62 7q-38 2 -57 -16l-2 -8q7 -63 3 -110q0 -24 1 -36q6 -63 6 -190
q0 -6 -1 -16t-1.5 -18.5t-0.5 -16.5v-264l-3 -18q-1 -16 -1.5 -47.5t-0.5 -47.5q0 -12 12 -15q16 -2 18 12q4 22 4 36q1 64 1 194q2 76 0 102q-5 46 3 85z" />
    <glyph glyph-name="G" unicode="G" horiz-adv-x="330" 
d="M257 476q2 -14 2 -15q5 -181 -2 -306q-2 -72 -3 -78q0 -16 -5 -27q-14 -32 -24 -29q-24 0 -61 8q-9 2 -18 9q-40 28 -43 84l-3 87v59q-5 103 -5 123q-1 22 -0.5 39.5t0 38.5t-3.5 38q-1 6 0 12q1 16 1.5 47.5t0.5 47.5q5 49 12 98q4 38 34 52q51 20 91 -5q26 -16 26 -44
q-2 -14 0 -26q1 -6 8 -11t13 -4q15 0 15 17q0 34 -3 43q-9 36 -39.5 55.5t-70.5 18.5q-10 -2 -14 -2q-54 -3 -79 -49q-8 -14 -14 -40l-8 -59q-4 -24 -4 -35v-102q0 -29 2 -37q4 -22 4 -84q0 -12 -0.5 -37.5t-0.5 -37.5q0 -18 0.5 -52t1 -62t1.5 -52q4 -59 13 -85
q18 -67 78 -81q14 -3 34 -3.5t29 -1.5q18 2 28.5 9.5t15 15t13.5 26.5q3 5 7 33q4 30 4 88q-2 68 1 120q1 32 0.5 102.5t1.5 102.5q2 17 -9 25q-63 4 -98 5q-9 0 -14 -1q-16 -5 -16 -17q1 -7 6.5 -13t11.5 -6q3 0 5.5 0.5t6 1.5t5.5 1q32 4 66 -5z" />
    <glyph glyph-name="H" unicode="H" horiz-adv-x="349" 
d="M269 144q4 -31 0 -79q-2 -42 -2 -62q-2 -13 10 -16q7 -1 12.5 3t6.5 11t1 22q0 32 0.5 95t1.5 95q0 2 3 62q1 34 1 115.5t3 126.5q2 22 2.5 47t0.5 55.5v47.5q0 71 -1 106q0 12 -4 32q-3 15 -17 13t-12 -22q0 -4 1.5 -12t1.5 -13q2 -41 4 -127q2 -72 1 -92
q-3 -44 -4 -93.5t-1 -109.5t-1 -93l-3 -60q-15 -16 -30 -15q-20 3 -104 1q-22 -2 -32 9q1 24 -1.5 74.5t-0.5 76.5q2 30 2.5 68t0 68.5t0.5 68.5v168q0 22 -2 70q0 7 -4 21q-5 14 -18 9q-13 -3 -10 -18q1 -9 4 -32.5t4 -36.5q1 -14 -0.5 -40t-1.5 -37v-47q0 -14 0.5 -30
t1.5 -35t1 -30q0 -83 -1 -125q0 -18 -2 -54q-6 -43 0 -88q6 -60 -3 -120q-4 -29 -8 -87q-1 -11 3 -29q3 -8 9 -8q10 0 13 6q3 4 5 21q1 12 1.5 36.5t0.5 36.5q0 22 9 51q117 12 158 -5z" />
    <glyph glyph-name="I" unicode="I" horiz-adv-x="183" 
d="M94 8q1 0 6 -2.5t8 -3.5q18 -5 20 13q1 6 1 19q0 9 -1.5 32.5t-2 43.5t-0.5 32v29.5v27v19.5l4 67.5t4 75.5q1 51 -2 231l-3 155q0 22 -2 33q-2 12 -10 18q-11 8 -23 -5q-2 -6 -1 -10q4 -20 5 -45t1 -55.5t1 -43.5q1 -20 1 -85.5t2 -90.5q5 -72 -4 -190q-7 -86 -6 -128
q2 -74 2 -137z" />
    <glyph glyph-name="J" unicode="J" horiz-adv-x="320" 
d="M147 765h51q0 -5 1.5 -18.5t1.5 -20.5q0 -16 4.5 -86t1.5 -108q-1 -11 0 -30.5t1 -27.5q0 -3 -9 -181q-1 -22 -2.5 -62t-2.5 -73t-1 -62l-3 -23q-1 -14 -13 -23q-3 -2 -8.5 -7t-7.5 -7q-33 -17 -50 -13q-40 8 -46 51q-7 36 -5 80q4 34 0 52q-4 3 -7 3q-14 3 -18.5 -1
t-4.5 -18q0 -97 6 -129q12 -58 61 -67q56 -12 110 39q8 8 12 26q2 18 4 58q1 22 1.5 66.5t1.5 66.5q1 38 5 115l6 116q1 0 1 69l-1 68q0 8 -1 22t-1 21q-2 33 -4 91q0 3 1.5 11t1.5 10q18 -3 29 -3q8 -1 12 3.5t4 13.5q-1 10 -6 15.5t-13 4.5q-32 -2 -104 -8q-5 0 -13 -4
q-10 -4 -5 -15q3 -8 9 -15z" />
    <glyph glyph-name="K" unicode="K" horiz-adv-x="340" 
d="M122 422q-1 1 -3.5 1.5t-3.5 0.5q0 31 4.5 95.5t3.5 98.5q-3 194 -3 195q-19 4 -25.5 -1.5t-4.5 -24.5q4 -56 4 -83q2 -96 1 -146q0 -20 -2 -57.5t-2 -48.5q-1 -12 1 -36q14 -84 4 -145q-4 -25 -2 -65q3 -23 -2 -120q0 -11 -1 -33t-1 -33q0 -12 5 -20q4 -6 14 -8
q4 -1 6.5 2.5t3.5 8.5q3 12 3 25q-1 12 2 139v43q0 6 -1.5 19t-2 18t1.5 17q1 11 4 108l29 45q4 6 10 24.5t13 27.5q5 -10 5 -12q8 -62 23 -110q12 -40 16 -99q2 -16 14 -82q20 -92 29 -139l3 -10q6 -13 18 -12q14 4 12 19q0 2 -3 17q-2 9 -7 25.5l-7 23.5l-27 112
q-2 7 -2 22q-8 83 -20 132q-13 44 -22 114q-2 31 -15 45l4 12q10 18 33.5 69t38.5 77q1 3 4 9.5t5 11.5t3 9q2 14 19 45q10 16 15 32q2 6 7 24q0 14 -11 16q-7 2 -13 -6q-5 -5 -9 -19l-13.5 -32.5l-16 -37l-14.5 -30.5q-5 -12 -29 -65l-63 -147l-24 -48q-1 -2 -4.5 -6
t-4.5 -7z" />
    <glyph glyph-name="L" unicode="L" horiz-adv-x="240" 
d="M75 805q0 -2 -0.5 -6.5t-0.5 -7.5q1 -14 1.5 -41t0.5 -41l3 -188q0 -16 -2 -50q-1 -21 -1 -149.5t-1 -160.5v-4q0 -14 1 -43t0 -51.5t-6 -43.5q-2 -10 5.5 -18.5t16.5 -6.5l56 12q52 10 81 -1q9 -5 15 -3q9 0 17 4t9 13.5t-7 15.5q-10 5 -13 5q-10 2 -30 4q-43 2 -74 -6
q-28 -7 -39 1v36q1 44 -1 132q-1 23 -0.5 35.5t0.5 63.5t-1 119q-1 47 2 106q1 15 0.5 44.5t0.5 44.5q3 54 -1 164q-1 17 -7 21t-25 0z" />
    <glyph glyph-name="M" unicode="M" horiz-adv-x="380" 
d="M311 720q-2 -24 -2 -39v-51q0 -9 1 -38t0 -45q-2 -94 -4 -137q0 -21 -0.5 -61.5t-1.5 -61.5v-26q6 -86 -4 -235q0 -3 -0.5 -9t-0.5 -9q1 -7 6 -11.5t10 -4.5q15 2 17 16v19q0 11 0.5 45t1.5 52q5 81 0 141q-4 25 -1 44q4 33 4 84.5v84.5q1 35 1 104v103q3 102 6 122
q-21 5 -31 1q-11 -7 -14 -18q-2 -11 -8 -24l-60 -123q-4 -8 -18 -26q-7 5 -8 7l-94 173q-9 18 -29 15h-9q-17 -3 -12 -21q12 -62 12 -64q3 -30 10 -170q3 -31 0 -61q-3 -46 -3 -272q0 -18 1.5 -53t1.5 -52q0 -18 -2 -50.5t-2 -43.5q0 -12 13 -15q5 -2 11.5 1t7.5 9
q2 12 2 18q-1 25 -1.5 76t-0.5 76q0 10 -2 39.5t-2 46.5q0 36 5 214q2 70 -11 238q0 10 6 13q2 -5 8 -13t8 -11q48 -86 68 -131q7 -17 17 -18t20 14q19 30 31 52q31 63 52 86z" />
    <glyph glyph-name="N" unicode="N" horiz-adv-x="349" 
d="M268 106l-4 28l-67 278q-21 76 -37 167q-10 57 -54 210l-7 14l-18 -3q-11 -3 -11 -13l3 -82q0 -17 4.5 -91t3.5 -114q-1 -52 -2.5 -93.5t-2.5 -62t-1 -34.5q-3 -204 3 -293q0 -11 5 -20q8 -4 18 4q9 4 9 22q0 3 -1 9t-1 9q0 14 -2 135t1 139q2 47 4 145q4 81 -2 131
q0 1 -3 78q3 -4 8 -18q8 -32 19 -87l67 -315q2 -9 8.5 -31t8.5 -34l38 -173q4 -16 11.5 -19.5t30.5 -2.5q7 15 5 36q10 195 10 220v93q6 132 2 187q-2 12 -0.5 74t1.5 75q1 0 1 50l-1 51q0 13 -3 18q-4 9 -13 9q-15 -5 -18 -11q-1 -3 -1 -18q4 -61 2 -146q-1 -22 1 -64
t2 -60q0 -46 -2 -138q0 -7 -1 -22t-1 -23q0 -11 -0.5 -32t-1 -38.5t-1.5 -33.5q-1 -31 -5 -93q0 -17 -5 -17z" />
    <glyph glyph-name="O" unicode="O" horiz-adv-x="333" 
d="M60 200v-102q0 -40 31 -69q34 -32 91 -39q33 -3 61.5 20t37.5 59q16 63 19 146q2 80 0 242q0 150 -2 226q-2 68 -51 100q-22 14 -57 24q-29 8 -39 2q-5 -3 -9 -8q-1 -2 -3 -2.5t-5 -0.5t-5 -1q-26 -13 -38 -32q-30 -49 -37 -87q-6 -40 -14 -113q0 -6 0.5 -12.5t1.5 -15
t1 -13.5q2 -14 2 -22q1 -11 2.5 -32t2.5 -38t1 -32q2 -39 5 -108zM266 651q0 -8 2 -30.5t2 -33.5q1 -34 -1 -98v-34v-53v-15q3 -20 3 -42t-1.5 -48.5t-1.5 -41.5q0 -8 1 -11q2 -21 0 -43t-6 -50t-5 -42q-4 -37 -39 -74q-11 -13 -35 -9q-29 4 -47 12q-47 22 -47 72v89
q0 22 -1 46t-2.5 53t-2.5 45q-6 96 -8 144q-1 4 -1 11.5v10.5q-12 62 11 168q6 37 28 64q14 19 34 23q4 1 14 5l15 6q9 2 13 0q37 -20 45 -26q30 -24 30 -61v-37z" />
    <glyph glyph-name="P" unicode="P" 
d="M107 121v98l24 19l65 62q23 23 27 30q32 48 32 79q2 142 -7 243q-4 37 -28 73q-5 8 -11 15.5t-15.5 15l-13.5 10.5t-17 12t-15 10q-26 14 -64 16q-16 0 -14 -17q0 -10 3 -19q7 -26 7 -79v-122q0 -123 -1 -148q0 -12 -3.5 -41.5t-2.5 -45.5q6 -72 1 -170q-1 -20 -1.5 -42
t-1 -49t-0.5 -42v-26q0 -13 10 -13t17 5q8 12 8 20q1 36 1 106zM111 764q53 -15 77 -49q28 -43 30 -100v-35.5t1 -36.5q0 -26 2 -38q5 -23 0 -101q-1 -24 -18 -46q-29 -38 -86 -86q-4 0 -5.5 2t-2 4t-1 5.5t-0.5 4.5q-8 72 0 116q5 30 3 121q-2 88 0 117q3 43 -1 102
q-1 5 1 20z" />
    <glyph glyph-name="Q" unicode="Q" horiz-adv-x="370" 
d="M218 -11l8 4l8 4q28 7 43 38q19 35 26 70q18 88 17 135q0 13 1 19q2 59 8 179v56v73q0 15 -2.5 54t-2.5 60q0 50 -30 93q-8 10 -21 18q-19 13 -60 15q-40 4 -66 -1q-15 -3 -23 -11q-38 -40 -42 -75q-15 -100 -9 -139v-20q0 -231 -1 -347q0 -60 13 -112q24 -81 82 -106
q3 -2 9 -5.5t9 -5.5q-2 -26 -2 -35q0 -16 2 -23q0 -12 13 -14q13 -1 16 12q3 10 3 23q0 36 1 41zM216 34q0 4 -1 14t-1 15q-1 6 -2 17t-2 17q-4 13 -10.5 14.5t-20.5 -6.5q0 -10 1.5 -30t2.5 -31q1 -2 -3 -10q-21 -1 -42 28q-16 27 -23 54q-12 44 -12 144q0 10 0.5 30.5
t0.5 29.5q0 15 -1 49t-0.5 59.5t3.5 48.5v11q-4 82 -5 118q-3 52 15 119q11 48 61 50q31 2 54 -2t40.5 -24.5t20.5 -51.5q2 -21 4 -62.5l3 -62.5q3 -18 1 -78t-2 -77q2 -77 -6 -153q-2 -14 -1 -23q2 -47 -20 -141q-7 -24 -22 -47q-9 -20 -33 -19z" />
    <glyph glyph-name="R" unicode="R" horiz-adv-x="330" 
d="M141 351l10 -23.5t11 -24.5q43 -91 60 -152q15 -55 50 -140q9 -21 30 -24q11 18 8 24q-8 18 -9 20q-31 60 -46 121q-5 19 -10 31l-58 141q-17 42 -13 70q37 32 52 44q29 22 39 58q18 67 3 153q-17 91 -79 131q-4 2 -11 6.5t-13 8t-12 6.5q-19 7 -33 7q-32 -4 -23 -32
q9 -33 7 -101q0 -7 0.5 -20.5t0.5 -20.5v-175q-1 -60 -7 -187l-3 -102q3 -37 -1 -110q-1 -10 -2.5 -28.5t-1.5 -27.5q20 -13 24 -9q8 9 9 18q2 4 2 15t3 76.5t-3 76.5q-2 9 0 29q7 69 4 113q-2 19 12 28zM130 772q54 -7 80 -54q22 -38 27 -74q10 -66 0 -131q-6 -32 -27 -49
l-64 -54q-2 -1 -6 -2t-6 -2q0 21 1 58t1.5 67.5t0.5 57.5q-1 58 -7 183z" />
    <glyph glyph-name="S" unicode="S" horiz-adv-x="270" 
d="M43 156q0 -2 -1.5 -20.5t-1.5 -28.5q1 -19 5 -62q5 -31 32 -42q2 -1 7.5 -4t8.5 -4q47 -24 81 3q2 2 12.5 8t15.5 10q40 30 43 81q5 85 -15 166q-20 79 -30 102q-2 6 -4.5 17.5t-3.5 14.5q-2 8 -6 22l-7.5 25.5t-7.5 21.5q-4 11 -12.5 32.5t-12.5 32.5q-19 49 -23 62
q-3 9 -9.5 24.5l-11.5 28.5t-9 25q-11 32 0 65q7 25 32.5 35t49.5 -3q34 -18 34 -60q0 -19 2 -28q3 -15 20 -13q11 1 13 15q6 40 -12 75q-21 42 -61 48q-23 4 -54 -1q-40 -7 -51 -38q-19 -52 -10 -86q9 -38 24 -76q16 -45 41 -102q12 -27 22 -57t21.5 -70.5t17.5 -59.5
q21 -66 31 -158q3 -41 -7 -79q-4 -13 -10 -19q-18 -19 -36 -32q-20 -14 -46.5 -4.5t-33.5 32.5q-8 25 -4 69v9v11v9q-4 18 -22 11q-4 -1 -11 -8z" />
    <glyph glyph-name="T" unicode="T" horiz-adv-x="280" 
d="M139 772q0 -1 1.5 -5t1.5 -6q4 -91 5 -139v-42t0.5 -45t2 -41t4.5 -44q5 -36 1 -65q-5 -33 0 -128q1 -18 1 -55q0 -42 -1 -62l-3 -84q-1 -10 -2.5 -28t-1.5 -27q0 -16 14 -19q16 -4 18 13q6 34 6 51q0 22 -0.5 67.5t-0.5 68.5l1 34q1 35 -1 35q-7 59 -2 128q2 37 0 73
q-1 9 -3.5 38.5t-3.5 45.5q-2 81 0 164q0 11 0.5 34.5t0.5 35.5q27 6 82 -9l11 13q11 23 -14 26q-28 2 -43 2q-16 1 -52 3.5t-51 3t-51 -2.5q-15 -1 -18 -6.5t4 -18.5q1 -2 4.5 -5t4.5 -5q10 0 29.5 3t28 2.5t27.5 -4.5z" />
    <glyph glyph-name="U" unicode="U" horiz-adv-x="320" 
d="M60 797v-54q3 -251 3 -252q5 -162 4 -278q-1 -18 -1 -52.5v-52.5q0 -33 18 -60q1 -1 5.5 -8.5t7.5 -11.5q36 -45 78 -42q13 2 25 0q35 -2 62 29.5t26 79.5q-1 29 3 82q10 108 9 189q-1 25 0 72t1 62q0 42 -0.5 126.5t-0.5 125.5q0 12 -1 18q-2 12 -13 14q-15 2 -17 -11
q-3 -12 -1 -26q4 -151 5 -230q1 -23 -2 -141q0 -6 0.5 -17t0.5 -17q2 -18 2 -27q-5 -74 -7 -100q-1 -12 -4.5 -39.5t-5 -48t-0.5 -40.5q2 -33 -19 -49q-39 -31 -81 -15q-37 12 -53 54q-11 26 -11 62q0 68 2 101q2 19 0 97.5t-2 97.5q0 35 -2.5 105.5t-3 105.5t2.5 105v32
q-1 18 -18 19q-2 0 -12 -5z" />
    <glyph glyph-name="V" unicode="V" horiz-adv-x="380" 
d="M206 79q-9 15 -13 49q-2 36 -7 62q-3 16 -22.5 130.5t-33.5 173.5q-4 19 -15.5 82t-20.5 97q-3 8 -7 24.5l-6 24.5q-10 34 -24 71q-4 13 -14 18q-5 4 -18 -1q-5 -3 -5 -14q1 -3 3 -10t3 -9q15 -31 19 -51l13 -46.5t13.5 -50.5l10.5 -46t10 -50q3 -21 11.5 -58.5
t10.5 -49.5l31 -196q8 -40 8 -46q1 -24 4.5 -49t10.5 -63.5t9 -48.5q1 -13 8 -26q5 -16 20 -16q12 1 20 17l3 11q1 6 10.5 48.5t13.5 64.5l20 141l24 165q1 7 2 22.5t2 23.5q2 25 8 75q11 49 11 50q3 29 16 79.5t16 68.5q0 1 1.5 6t2.5 9q1 3 5.5 12.5t6.5 15.5q7 20 -11 27
q-21 9 -28 -13l-20 -84q-2 -9 -5 -27t-5 -28q-1 -6 -3.5 -19t-3.5 -20q-10 -52 -14 -78q-8 -53 -8 -63q-1 -35 -10 -90l-24 -169q-1 -4 -5 -25.5t-5 -32.5q-1 -38 -19 -88z" />
    <glyph glyph-name="W" unicode="W" horiz-adv-x="470" 
d="M251 393l7.5 -37t7 -38.5t3.5 -30.5q5 -57 23 -164q2 -12 5.5 -35.5t5.5 -34.5q6 -34 21 -49q29 -24 34 15q1 6 1 19q1 10 4.5 42t6.5 49q27 192 30 262q0 21 4 59q11 62 18 149q5 66 11 90q9 32 16 76q2 10 -2 18t-12 9q-5 1 -11.5 -4.5t-7.5 -13.5q-1 -1 -1 -3
q-12 -86 -16 -125q-3 -25 -6 -53.5l-6.5 -62.5l-5.5 -53q-9 -78 -9 -79q0 -45 -15 -152q-3 -25 -10.5 -70.5t-9.5 -62.5q-2 -9 -6 -9q-1 -1 -4 0q-18 95 -20 110q-4 27 -10 76t-9 69q-7 51 -16 89q-1 9 -9 25q-4 6 -12.5 6.5t-12.5 -4.5q-13 -19 -12 -31q0 -7 -2 -21t-2 -18
q-8 -48 -8 -56q-2 -20 -4 -61l-3 -61q-1 -8 -7 -61t-9 -84q-7 14 -11 27.5t-6.5 34t-3.5 24.5q-4 20 -9.5 60t-9.5 60q-6 36 -20.5 108t-20.5 108q-9 51 -21 148q-5 56 -18 108q-3 15 -11 33q-7 18 -23 10q-11 -6 -5 -24q20 -68 24 -104q3 -31 15 -105q1 -13 7 -46
q20 -114 29 -171q3 -16 13 -73.5t15 -89.5q5 -27 12.5 -76.5t10.5 -66.5q1 -5 2 -16t2 -16q8 -29 35 -17q3 1 10 8q12 56 30 236q4 74 7 111q0 5 2.5 17.5z" />
    <glyph glyph-name="X" unicode="X" horiz-adv-x="350" 
d="M320 770l-9 -28l-92 -288l-13 -41q-1 -2 -3.5 -8.5t-3.5 -10.5q2 -4 2 -6l3 -9t4 -9q19 -60 23 -81q6 -26 20 -58l6 -17q3 -9 15 -40l19 -48q5 -15 11.5 -32.5l15 -39t12.5 -33.5q5 -8 1 -19q-3 -13 -12 -13q-8 0 -12 7q-5 13 -7 16q-2 8 -15 44q-30 74 -42 112
q-15 40 -30 91l-12 38q-3 12 -11 34q-1 2 -2 6t-2 6h-1q-4 0 -6 -5l-1 -2l-19 -57l-17 -52l-9 -28q-13 -38 -29 -91q-10 -29 -19 -71q-7 -41 -25 -63l-1 -2l-2 2q-17 12 -17 20q-2 8 5 18q6 14 12 40q2 6 7 26q1 2 2 5.5t1 4.5q2 8 2 11q2 7 10 29.5t12 35.5q20 55 30 86
q10 26 22 64l14 41l8 24q0 2 1.5 6t1.5 6l-3 13q-1 4 -6 17.5t-7 20.5l-2 5q0 1 -4 13.5t-6 19.5q-14 57 -68 223q-8 21 -19 57l-6 20q-1 4 -1 11q0 14 8 17h6q6 0 9 -3q5 -5 9 -18q7 -33 34 -112l23 -72l27 -92q2 -13 13 -49q0 -3 1 -4q4 -15 9 -17q3 3 3 7q6 14 8 21
q10 32 14 47q4 16 11 37l58 190l1 1l3 11q9 29 13 38q3 10 14 14q2 1 3 1q5 0 10 -7q4 -5 2 -14q-2 -8 -4 -13q0 -1 -1 -2v-2z" />
    <glyph glyph-name="Y" unicode="Y" horiz-adv-x="340" 
d="M162 494l20 -35q-2 -9 -6 -29.5t-7 -31.5q-6 -41 -15 -82q-17 -91 -18 -99q-4 -31 -20 -91q-3 -11 -9.5 -32l-11.5 -38t-9 -32q-3 -9 -1 -21q0 -12 11 -14q11 -1 17 10l3 14l30 103q2 6 4 20q20 127 39 209l5 25q3 26 8 53t14 64t12 52l42 159l24 93q3 14 -6 18
q-12 6 -20 -5q-4 -10 -4 -15q-8 -25 -10 -41l-35 -143l-26 -97q-10 6 -19 25q-48 94 -61 128q-1 4 -20 52t-26 75q-4 18 -24 13l-3 -18q7 -32 12 -43l47 -115z" />
    <glyph glyph-name="Z" unicode="Z" horiz-adv-x="320" 
d="M58 -8q14 -12 29 -10q5 0 15 0.5t15 0.5q3 0 27.5 -1.5t28.5 0.5q56 9 96 3q9 -1 13 9q6 14 0 20q-8 11 -13 8q-8 -3 -17 -3.5t-19.5 0t-16.5 0.5q-51 -4 -114 -4q-17 -1 -20.5 7t3.5 30q1 2 3.5 10t3.5 12l27 113q23 103 51 200q8 23 21 71.5t21 72.5q8 19 23 76
l17 58.5t15 51.5q3 13 10 40t10 40q-8 14 -20 11q-15 -5 -38 -7q-10 -2 -28 -3t-24 -2q-57 -7 -93 2q-5 1 -11 0q-5 0 -8 -7.5t1 -14.5q6 -14 21 -14h32.5t43 1.5t33.5 5.5q24 4 34 4q4 0 11.5 -2t9.5 -2q-4 -25 -6 -30q-2 -7 -6.5 -25t-6.5 -28q-32 -119 -36 -131
q-3 -11 -11.5 -35t-11.5 -35q-5 -17 -16 -57.5t-18 -62.5q-13 -39 -30 -111.5t-22 -90.5q-16 -82 -32 -117q-7 -18 -3 -32q3 -7 6 -22z" />
    <glyph glyph-name="bracketleft" unicode="[" horiz-adv-x="255" 
d="M104 -8q-2 12 -2 17l3 79q0 12 1.5 38.5t2.5 40.5q1 12 2.5 33.5t2.5 39t1 33.5q1 10 0 29t-1 24q0 15 0.5 45t0.5 46q-3 61 -3 62q-3 32 -1 143q0 10 1.5 29.5t2 29t-0.5 28.5t6 75q1 15 15 13q7 -1 22 -2t22 -2q11 -1 15 11q0 2 1 6.5t1 6.5q3 16 -10 16q-16 1 -47 1
q-18 0 -38 -5q-12 -2 -17.5 -11.5t0.5 -20.5q3 -6 3 -21q0 -5 -2.5 -37.5t-1.5 -50.5t-0.5 -51t-1.5 -47q0 -24 1.5 -71t1.5 -69q1 -17 0.5 -49.5t-0.5 -48.5q4 -87 -5 -181q-2 -15 -3 -41.5t-2 -35.5q-5 -76 -8 -95q-5 -23 3 -35t28 -11q7 0 19.5 1.5t18.5 1.5q4 0 11.5 1
t14 0.5t12.5 -2.5q18 -12 29 5q5 7 -2 31q0 2 -1 2q-6 4 -10 4q-11 0 -22.5 -1t-26 -2.5t-22.5 -2.5q-8 0 -14 1z" />
    <glyph glyph-name="backslash" unicode="\" horiz-adv-x="325" 
d="M269 -46q2 -1 5.5 -2.5t6.5 -2.5t6 -1q9 -2 14 4.5t3 16.5l-3 12t-3 13q-4 10 -17.5 47.5t-20.5 58.5q-2 8 -7 23.5l-9 29t-6 25.5q-10 33 -26.5 98.5t-18.5 74.5l-78 248l-58 180q-6 22 -15 41q-6 14 -17 21q-7 5 -14.5 1.5t-10.5 -13.5q3 -10 5 -10q11 -25 20.5 -53
l20 -62l16.5 -53q6 -17 25.5 -80t32.5 -96q37 -104 65 -233q29 -115 39 -145q8 -27 23.5 -75.5z" />
    <glyph glyph-name="bracketright" unicode="]" horiz-adv-x="328" 
d="M188 795q0 -4 0.5 -9.5t0.5 -7.5q0 -9 -0.5 -25t-1 -29.5t-1.5 -24.5q-1 -14 -2.5 -42t-2.5 -42l-6 -106q0 -10 1 -27.5t1 -25.5q0 -16 -0.5 -47t-0.5 -46q0 -41 3 -63q3 -32 1 -144q0 -7 -2.5 -40t-1.5 -50q0 -8 -5 -74q-1 -15 -15 -13q-42 3 -45 3q-13 1 -16 -11
l-3 -13q-2 -9 0.5 -12t11.5 -4q7 0 23.5 -0.5t24.5 -0.5q26 2 39 4q13 3 18 13t-1 21q-5 8 -3 22q0 13 3 42t2 45q-1 20 0.5 55t1.5 46q0 27 -2 77t-2 65v98q-4 68 5 184q1 13 2.5 38.5t2.5 38.5q5 76 8 97q9 47 -32 47l-39 -3q-4 0 -12 -1t-14 -0.5t-12 3.5q-21 7 -31 -7
q-3 -7 -3.5 -9.5t2.5 -11t3 -10.5l1 -1q8 -6 11 -6q52 6 73 8q2 0 6.5 -0.5t8.5 -0.5z" />
    <glyph glyph-name="underscore" unicode="_" horiz-adv-x="460" 
d="M25 -8q-2 -6 -4 -14q-3 -18 8 -20q4 -1 11 -1q9 1 26 2t25 2h38q10 -1 38 -4t44 -4q19 -1 117 2l86 3q2 0 9.5 0.5t10.5 1.5q8 2 11 10q5 13 -3 24h-6q-12 -4 -25 -5t-29.5 -1t-24.5 -1q-84 -3 -85 -3q-46 -5 -110 4q-52 7 -69 6q-44 -2 -68 -2z" />
    <glyph glyph-name="grave" unicode="`" horiz-adv-x="600" 
d="M380 787q-8 2 -11 4q-62 34 -127 49q-2 0 -5 2t-4 2q-6 4 -7 12.5t3 15.5q7 12 18 6q30 -16 45 -22q15 -7 42 -17.5t36 -14.5q12 -5 18 -11q2 -2 2.5 -7.5t-1.5 -9.5z" />
    <glyph glyph-name="a" unicode="a" 
d="M249 108l2.5 -17t1.5 -12q4 -41 7 -65q2 -15 18 -15q6 -1 11.5 3.5t6.5 11.5q0 12 -1 18q-4 25 -14 75q-8 38 -11 57l-24 170q-19 144 -26 203q-2 14 -6.5 58.5t-7.5 68.5q-9 60 -7 83q0 10 -9 35q-2 6 -9.5 8t-12.5 -2q-24 -14 -26 -45q-10 -120 -13 -142
q-4 -34 -13 -96t-12 -85l-28 -188l-13 -79q-2 -13 -7 -39.5t-7 -39.5l-9 -47q-3 -17 14 -22q17 -3 21 14q7 42 10 58l6 25q21 -1 74 5.5t84 0.5zM169 672q8 -21 8 -23q2 -16 3.5 -34t3 -39t2.5 -33l4.5 -36.5l5.5 -42.5t5 -37q3 -23 10.5 -75l11.5 -80q3 -18 8 -54t8 -54
v-17l-87 -9q-22 -2 -33 -1q-5 1 -22 8q-2 19 -1 27t4.5 25t4.5 25q3 24 10 68t9 58q2 15 5.5 43.5l6.5 51.5t6 43q2 13 7 38t7 37q0 3 13 111z" />
    <glyph glyph-name="b" unicode="b" horiz-adv-x="280" 
d="M85 810q-26 -22 -30.5 -30t-4.5 -35q0 -46 2 -136q0 -14 3 -58.5t2 -69.5q-1 -28 0 -80t0 -94t-6 -79q-1 -9 -1 -22q-2 -93 -8 -139q-3 -33 0 -41.5t25 -29.5q1 -1 9 -4l6 1q5 1 8 3q48 21 94 44q3 2 18 17q13 14 15 46l3 146v43q0 16 -10 29q-21 27 -37 33q-4 1 -8 3.5
t-8.5 6t-7.5 5.5q0 2 1 3v1l8 8q48 35 59 105q3 17 3.5 36.5t0 35.5t0.5 36q0 65 -6 92q-13 60 -67 88q-6 3 -34 19q-4 2 -29 17zM96 383q-12 15 -8 38q2 27 2 39.5t-2 39.5t-2 39q-1 64 -1 192q0 24 9 37q41 -20 62 -37q28 -25 30 -83q1 -72 0 -142q-1 -31 -16 -63
q-13 -23 -30 -34q-6 -4 -21 -12.5t-23 -13.5zM82 32q-12 8 -10 29q6 50 10.5 143.5t8.5 134.5q0 1 3 5q18 3 22 1q23 -9 51 -26q21 -13 21 -41q-1 -26 -1 -76v-75q0 -17 -3 -31q-5 -24 -25 -34q-35 -18 -77 -30z" />
    <glyph glyph-name="c" unicode="c" 
d="M62 172h-2q3 -63 2 -76q0 -40 26 -66q45 -46 94 -41q54 7 67 61q1 6 3 17t3 16q3 11 5 41.5t9 46.5q4 9 -2.5 17t-15.5 9q-16 3 -19 -18q-5 -65 -6 -71q-2 -31 -5 -46q-9 -33 -37 -38q-13 -2 -35 4q-52 18 -56 75q-3 18 -3 40q0 15 1 43t1 43q0 22 -1.5 62.5t-1.5 74
t3 63.5q2 37 4 109q3 89 2 97q-3 38 6 85q3 17 15 28q16 14 18 15q28 19 57 -1q27 -24 28 -60q0 -24 1 -38q2 -17 18 -15q15 2 14 17q0 42 -3 64q-2 19 -29 57q-12 15 -30 20q-43 9 -79 -16q-42 -31 -44 -71l-3 -20.5t-2 -19.5q0 -9 1 -32.5t0 -35.5q0 -13 -0.5 -52
t-1.5 -61q0 -1 -3 -121q-1 -49 -1 -150q0 -18 2 -56z" />
    <glyph glyph-name="d" unicode="d" horiz-adv-x="310" 
d="M70 11q1 0 7 -1t9 -2q2 -1 6 -4t7 -5q9 -3 13 -2q81 12 126 61q33 33 32 74q-6 195 3 306v13q0 29 -1 84.5t-1 82.5q0 33 -16 76q-15 37 -60 68q-17 11 -52.5 24.5t-51.5 22.5q-2 1 -7 0t-7 -3q-18 -28 -17 -36q2 -65 4 -79q8 -44 4 -120q-2 -104 0 -138q8 -91 6 -135
q-1 -9 0 -25.5t1 -21.5v-63l-3.5 -33t-3.5 -37q-1 -15 -1.5 -31t-1 -35.5t-0.5 -30.5q0 -1 1 -2.5t2 -3.5zM99 38q-5 77 1 129q2 21 2 124v39q0 63 -4 85q-5 23 -3 57q7 113 -2 234q0 51 1 58q3 -1 11 -3t11 -4q21 -7 43 -18q74 -33 79 -121q2 -36 4 -110q0 -7 0.5 -21.5
t0.5 -20.5q0 -5 1 -20t0 -23q-1 -15 -3.5 -57.5t-3.5 -66.5q-1 -46 1 -138v-32q0 -29 -19 -46q-44 -43 -105 -49q-2 0 -15 4z" />
    <glyph glyph-name="e" unicode="e" 
d="M95 42h13q22 2 37 4q6 0 9 1h16h6h13q22 0 35 4q2 0 5 0.5t5.5 1t4.5 1.5h3h2q15 0 17 -14t-4 -23q-5 -13 -17 -13q-1 0 -7 2q-3 2 -9 2q-5 0 -15 -2l-1 -1q-2 0 -3 -1q-6 -2 -9 -2q-2 0 -2 1q-6 1 -20 1q-10 0 -32 -2t-31 -2h-5q-15 0 -36 3q-6 1 -11 8.5t-5 15.5v5v1
q1 1 1 2q6 46 4 126q0 9 2 29l2 20v25q2 56 6 110q3 28 -1 63q-4 69 -2 205v23q0 46 -3 88q-1 6 -1 18t-1 18q0 5 -1 8q0 3 -0.5 9t-0.5 8q1 5 5.5 11t8.5 6h1q9 0 21 3q4 0 12 0.5t12 0.5h10q27 -3 56 -3q8 -1 26 -1h5q3 0 8 -0.5t8 -1.5q7 -1 12 -10q5 -6 3 -14
q-5 -18 -18 -18h-5q-21 7 -51 7h-24q-14 -2 -29 0q-2 0 -4 1h-2q-9 0 -16 -5v-20v-51v-42q0 -21 -1 -33v-2v-72q0 -34 1 -51v-19q14 0 20 1q40 4 59 5q4 0 7 1q2 0 6 0.5t5 0.5q13 0 22 -9l2 -2v-2q-5 -35 -23 -35q-1 0 -13 2q-12 3 -30 3q-23 0 -55 -9v-3q8 -50 0 -135
q-3 -39 -3 -82v-117v-48z" />
    <glyph glyph-name="f" unicode="f" horiz-adv-x="280" 
d="M90 430q75 4 103 5q8 21 5 27q-5 12 -23 10l-39 -6q-24 -5 -47 9q-9 174 -3 291q27 8 65 3q48 -8 86 -7q4 0 12 -1.5t10 -1.5q23 -6 29 19q2 7 -2 12.5t-10 5.5q-7 0 -23 -2q-41 -5 -82 3q-27 5 -62 7q-38 2 -57 -16l-2 -8q7 -63 3 -110q0 -24 1 -36q6 -63 6 -190
q0 -6 -1 -16t-1.5 -18.5t-0.5 -16.5v-264l-3 -18q-1 -16 -1.5 -47.5t-0.5 -47.5q0 -12 12 -15q16 -2 18 12q4 22 4 36q1 64 1 194q2 76 0 102q-5 46 3 85z" />
    <glyph glyph-name="g" unicode="g" horiz-adv-x="330" 
d="M257 476q2 -14 2 -15q5 -181 -2 -306q-2 -72 -3 -78q0 -16 -5 -27q-14 -32 -24 -29q-24 0 -61 8q-9 2 -18 9q-40 28 -43 84l-3 87v59q-5 103 -5 123q-1 22 -0.5 39.5t0 38.5t-3.5 38q-1 6 0 12q1 16 1.5 47.5t0.5 47.5q5 49 12 98q4 38 34 52q51 20 91 -5q26 -16 26 -44
q-2 -14 0 -26q1 -6 8 -11t13 -4q15 0 15 17q0 34 -3 43q-9 36 -39.5 55.5t-70.5 18.5q-10 -2 -14 -2q-54 -3 -79 -49q-8 -14 -14 -40l-8 -59q-4 -24 -4 -35v-102q0 -29 2 -37q4 -22 4 -84q0 -12 -0.5 -37.5t-0.5 -37.5q0 -18 0.5 -52t1 -62t1.5 -52q4 -59 13 -85
q18 -67 78 -81q14 -3 34 -3.5t29 -1.5q18 2 28.5 9.5t15 15t13.5 26.5q3 5 7 33q4 30 4 88q-2 68 1 120q1 32 0.5 102.5t1.5 102.5q2 17 -9 25q-63 4 -98 5q-9 0 -14 -1q-16 -5 -16 -17q1 -7 6.5 -13t11.5 -6q3 0 5.5 0.5t6 1.5t5.5 1q32 4 66 -5z" />
    <glyph glyph-name="h" unicode="h" horiz-adv-x="349" 
d="M269 144q4 -31 0 -79q-2 -42 -2 -62q-2 -13 10 -16q7 -1 12.5 3t6.5 11t1 22q0 32 0.5 95t1.5 95q0 2 3 62q1 34 1 115.5t3 126.5q2 22 2.5 47t0.5 55.5v47.5q0 71 -1 106q0 12 -4 32q-3 15 -17 13t-12 -22q0 -4 1.5 -12t1.5 -13q2 -41 4 -127q2 -72 1 -92
q-3 -44 -4 -93.5t-1 -109.5t-1 -93l-3 -60q-15 -16 -30 -15q-20 3 -104 1q-22 -2 -32 9q1 24 -1.5 74.5t-0.5 76.5q2 30 2.5 68t0 68.5t0.5 68.5v168q0 22 -2 70q0 7 -4 21q-5 14 -18 9q-13 -3 -10 -18q1 -9 4 -32.5t4 -36.5q1 -14 -0.5 -40t-1.5 -37v-47q0 -14 0.5 -30
t1.5 -35t1 -30q0 -83 -1 -125q0 -18 -2 -54q-6 -43 0 -88q6 -60 -3 -120q-4 -29 -8 -87q-1 -11 3 -29q3 -8 9 -8q10 0 13 6q3 4 5 21q1 12 1.5 36.5t0.5 36.5q0 22 9 51q117 12 158 -5z" />
    <glyph glyph-name="i" unicode="i" horiz-adv-x="195" 
d="M105 799q-7 0 -13.5 -6t-6.5 -12q0 -7 7 -13.5t14 -6.5q9 0 15 7.5t5 17.5q-2 14 -21 13zM94 8q1 0 6 -2.5t8 -3.5q18 -5 20 13q1 6 1 19q0 7 -2 42t-2 51v75q1 11 4 56t4 71q2 84 -2 201l-3 132q0 22 -2 33q-2 12 -10 18q-5 4 -12.5 2.5t-10.5 -7.5q-2 -6 -1 -10
q4 -20 5 -43t1 -48.5t1 -35.5q1 -23 1 -74t2 -74q5 -71 -4 -173q-7 -85 -6 -120q2 -74 2 -122z" />
    <glyph glyph-name="j" unicode="j" horiz-adv-x="320" 
d="M147 765h51q0 -5 1.5 -18.5t1.5 -20.5q0 -16 4.5 -86t1.5 -108q-1 -11 0 -30.5t1 -27.5q0 -3 -9 -181q-1 -22 -2.5 -62t-2.5 -73t-1 -62l-3 -23q-1 -14 -13 -23q-3 -2 -8.5 -7t-7.5 -7q-33 -17 -50 -13q-40 8 -46 51q-7 36 -5 80q4 34 0 52q-4 3 -7 3q-14 3 -18.5 -1
t-4.5 -18q0 -97 6 -129q12 -58 61 -67q56 -12 110 39q8 8 12 26q2 18 4 58q1 22 1.5 66.5t1.5 66.5q1 38 5 115l6 116q1 0 1 69l-1 68q0 8 -1 22t-1 21q-2 33 -4 91q0 3 1.5 11t1.5 10q18 -3 29 -3q8 -1 12 3.5t4 13.5q-1 10 -6 15.5t-13 4.5q-32 -2 -104 -8q-5 0 -13 -4
q-10 -4 -5 -15q3 -8 9 -15z" />
    <glyph glyph-name="k" unicode="k" horiz-adv-x="340" 
d="M122 422q-1 1 -3.5 1.5t-3.5 0.5q0 31 4.5 95.5t3.5 98.5q-3 194 -3 195q-19 4 -25.5 -1.5t-4.5 -24.5q4 -56 4 -83q2 -96 1 -146q0 -20 -2 -57.5t-2 -48.5q-1 -12 1 -36q14 -84 4 -145q-4 -25 -2 -65q3 -23 -2 -120q0 -11 -1 -33t-1 -33q0 -12 5 -20q4 -6 14 -8
q4 -1 6.5 2.5t3.5 8.5q3 12 3 25q-1 12 2 139v43q0 6 -1.5 19t-2 18t1.5 17q1 11 4 108l29 45q4 6 10 24.5t13 27.5q5 -10 5 -12q8 -62 23 -110q12 -40 16 -99q2 -16 14 -82q20 -92 29 -139l3 -10q6 -13 18 -12q14 4 12 19q0 2 -3 17q-2 9 -7 25.5l-7 23.5l-27 112
q-2 7 -2 22q-8 83 -20 132q-13 44 -22 114q-2 31 -15 45l4 12q10 18 33.5 69t38.5 77q1 3 4 9.5t5 11.5t3 9q2 14 19 45q10 16 15 32q2 6 7 24q0 14 -11 16q-7 2 -13 -6q-5 -5 -9 -19l-13.5 -32.5l-16 -37l-14.5 -30.5q-5 -12 -29 -65l-63 -147l-24 -48q-1 -2 -4.5 -6
t-4.5 -7z" />
    <glyph glyph-name="l" unicode="l" horiz-adv-x="240" 
d="M75 805q0 -2 -0.5 -6.5t-0.5 -7.5q1 -14 1.5 -41t0.5 -41l3 -188q0 -16 -2 -50q-1 -11 -4 -54.5t-3 -66.5q0 -18 3 -85.5t2 -103.5v-4q0 -14 1 -43t0 -51.5t-6 -43.5q-2 -10 5.5 -18.5t16.5 -6.5l56 12q52 10 81 -1q9 -5 15 -3q9 0 17 4t9 13.5t-7 15.5q-10 5 -13 5
q-10 2 -30 4q-43 2 -74 -6q-28 -7 -39 1v36q-2 44 -4 132q-1 15 -2 46t-2 47q-2 101 1 125q10 70 7 106q-3 30 1 89q3 54 -1 164q-1 17 -7 21t-25 0z" />
    <glyph glyph-name="m" unicode="m" horiz-adv-x="380" 
d="M311 720q-2 -24 -2 -39v-51q0 -9 1 -38t0 -45q-2 -94 -4 -137q0 -21 -0.5 -61.5t-1.5 -61.5v-26q6 -86 -4 -235q0 -3 -0.5 -9t-0.5 -9q1 -7 6 -11.5t10 -4.5q15 2 17 16v19q0 11 0.5 45t1.5 52q5 81 0 141q-4 25 -1 44q4 33 4 84.5v84.5q1 35 1 104v103q3 102 6 122
q-21 5 -31 1q-11 -7 -14 -18q-2 -11 -8 -24l-60 -123q-4 -8 -18 -26q-7 5 -8 7l-94 173q-9 18 -29 15h-9q-17 -3 -12 -21q12 -62 12 -64q3 -30 10 -170q3 -31 0 -61q-3 -46 -3 -272q0 -18 1.5 -53t1.5 -52q0 -18 -2 -50.5t-2 -43.5q0 -12 13 -15q5 -2 11.5 1t7.5 9
q2 12 2 18q-1 25 -1.5 76t-0.5 76q0 10 -2 39.5t-2 46.5q0 36 5 214q2 70 -11 238q0 10 6 13q2 -5 8 -13t8 -11q48 -86 68 -131q7 -17 17 -18t20 14q19 30 31 52q31 63 52 86z" />
    <glyph glyph-name="n" unicode="n" horiz-adv-x="349" 
d="M106 669q6 -1 12 -18q8 -32 19 -87l67 -315q2 -9 8.5 -31t8.5 -34l38 -173q4 -16 9 -19.5t24 -2.5q7 15 5 36q-4 35 -1 52q2 13 5 78l4 56q2 22 2 34v93q6 132 2 187q-1 12 0 74t1 75q1 0 0 50v51q0 13 -3 18q-5 9 -13 9q-9 -3 -13 -11q-1 -3 -1 -18q4 -61 2 -146
q-1 -22 1 -64t2 -60q0 -46 -2 -138q0 -7 -1 -22t-1 -23q0 -11 -0.5 -32t-1 -38.5t-1.5 -33.5q-1 -31 -5 -93q0 -13 -5 -17q-8 26 -8 28q-10 60 -31 137q-1 1 -1 3l-30 138q-21 76 -37 167q-10 57 -54 210l-7 14l-21 -3q-11 -3 -11 -13q0 -9 0.5 -25.5t1 -30.5t1.5 -26l6 -64
t6 -76.5t2 -64.5q-1 -17 -2 -50.5t-2 -50.5q-2 -87 -7 -131q-4 -23 -4 -55q0 -128 1 -191q0 -2 4 -20q2 1 9.5 1.5t11.5 2.5q9 6 9 22q0 3 -1 9t-1 9q-5 204 2 269q4 36 6 145q4 81 -2 131q0 1 -3 78z" />
    <glyph glyph-name="o" unicode="o" horiz-adv-x="333" 
d="M60 200v-102q0 -40 31 -69q34 -32 91 -39q33 -3 61.5 20t37.5 59q16 63 19 146q2 80 0 242q0 150 -2 226q-2 68 -51 100q-22 14 -57 24q-29 8 -39 2q-5 -3 -9 -8q-1 -2 -3 -2.5t-5 -0.5t-5 -1q-26 -13 -38 -32q-30 -49 -37 -87q-6 -40 -14 -113q0 -6 0.5 -12.5t1.5 -15
t1 -13.5q2 -14 2 -22q1 -11 2.5 -32t2.5 -38t1 -32q2 -39 5 -108zM266 651q0 -8 2 -30.5t2 -33.5q1 -34 -1 -98v-34v-53v-15q3 -20 3 -42t-1.5 -48.5t-1.5 -41.5q0 -8 1 -11q2 -21 0 -43t-6 -50t-5 -42q-4 -37 -39 -74q-11 -13 -35 -9q-29 4 -47 12q-47 22 -47 72v89
q0 22 -1 46t-2.5 53t-2.5 45q-6 96 -8 144q-1 4 -1 11.5v10.5q-12 62 11 168q6 37 28 64q14 19 34 23q4 1 14 5l15 6q9 2 13 0q37 -20 45 -26q30 -24 30 -61v-37z" />
    <glyph glyph-name="p" unicode="p" 
d="M107 121v98l24 19l65 62q23 23 27 30q32 48 32 79q2 142 -7 243q-4 37 -28 73q-5 8 -11 15.5t-15.5 15l-13.5 10.5t-17 12t-15 10q-26 14 -64 16q-16 0 -14 -17q0 -10 3 -19q7 -26 7 -79v-122q0 -123 -1 -148q0 -12 -3.5 -41.5t-2.5 -45.5q6 -72 1 -170q-1 -20 -1.5 -42
t-1 -49t-0.5 -42v-26q0 -13 10 -13t17 5q8 12 8 20q1 36 1 106zM111 764q53 -15 77 -49q28 -43 30 -100v-35.5t1 -36.5q0 -26 2 -38q5 -23 0 -101q-1 -24 -18 -46q-29 -38 -86 -86q-4 0 -5.5 2t-2 4t-1 5.5t-0.5 4.5q-8 72 0 116q5 30 3 121q-2 88 0 117q3 43 -1 102
q-1 5 1 20z" />
    <glyph glyph-name="q" unicode="q" horiz-adv-x="370" 
d="M218 -11l8 4l8 4q28 7 43 38q19 35 26 70q18 88 17 135q0 13 1 19q2 59 8 179v56v73q0 15 -2.5 54t-2.5 60q0 50 -30 93q-8 10 -21 18q-19 13 -60 15q-40 4 -66 -1q-15 -3 -23 -11q-38 -40 -42 -75q-15 -100 -9 -139v-20q0 -231 -1 -347q0 -60 13 -112q24 -81 82 -106
q3 -2 9 -5.5t9 -5.5q-2 -26 -2 -35q0 -16 2 -23q0 -12 13 -14q13 -1 16 12q3 10 3 23q0 36 1 41zM216 34q0 4 -1 14t-1 15q-1 6 -2 17t-2 17q-4 13 -10.5 14.5t-20.5 -6.5q0 -10 1.5 -30t2.5 -31q1 -2 -3 -10q-21 -1 -42 28q-16 27 -23 54q-12 44 -12 144q0 10 0.5 30.5
t0.5 29.5q0 15 -1 49t-0.5 59.5t3.5 48.5v11q-4 82 -5 118q-3 52 15 119q11 48 61 50q31 2 54 -2t40.5 -24.5t20.5 -51.5q2 -21 4 -62.5l3 -62.5q3 -18 1 -78t-2 -77q2 -77 -6 -153q-2 -14 -1 -23q2 -47 -20 -141q-7 -24 -22 -47q-9 -20 -33 -19z" />
    <glyph glyph-name="r" unicode="r" horiz-adv-x="330" 
d="M141 351l10 -23.5t11 -24.5q43 -91 60 -152q15 -55 50 -140q9 -21 30 -24q11 18 8 24q-8 18 -9 20q-31 60 -46 121q-5 19 -10 31l-58 141q-17 42 -13 70q37 32 52 44q29 22 39 58q18 67 3 153q-17 91 -79 131q-4 2 -11 6.5t-13 8t-12 6.5q-19 7 -33 7q-32 -4 -23 -32
q9 -33 7 -101q0 -7 0.5 -20.5t0.5 -20.5v-175q-1 -60 -7 -187l-3 -102q3 -37 -1 -110q-1 -10 -2.5 -28.5t-1.5 -27.5q20 -13 24 -9q8 9 9 18q2 4 2 15t3 76.5t-3 76.5q-2 9 0 29q7 69 4 113q-2 19 12 28zM130 772q54 -7 80 -54q22 -38 27 -74q10 -66 0 -131q-6 -32 -27 -49
l-64 -54q-2 -1 -6 -2t-6 -2q0 21 1 58t1.5 67.5t0.5 57.5q-1 58 -7 183z" />
    <glyph glyph-name="s" unicode="s" horiz-adv-x="270" 
d="M43 156q0 -2 -1.5 -20.5t-1.5 -28.5q1 -19 5 -62q5 -31 32 -42q2 -1 7.5 -4t8.5 -4q47 -24 81 3q2 2 12.5 8t15.5 10q40 30 43 81q5 85 -15 166q-20 79 -30 102q-2 6 -4.5 17.5t-3.5 14.5q-2 8 -6 22l-7.5 25.5t-7.5 21.5q-4 11 -12.5 32.5t-12.5 32.5q-19 49 -23 62
q-3 9 -9.5 24.5l-11.5 28.5t-9 25q-11 32 0 65q7 25 32.5 35t49.5 -3q34 -18 34 -60q0 -19 2 -28q3 -15 20 -13q11 1 13 15q6 40 -12 75q-21 42 -61 48q-23 4 -54 -1q-40 -7 -51 -38q-19 -52 -10 -86q9 -38 24 -76q16 -45 41 -102q12 -27 22 -57t21.5 -70.5t17.5 -59.5
q21 -66 31 -158q3 -41 -7 -79q-4 -13 -10 -19q-18 -19 -36 -32q-20 -14 -46.5 -4.5t-33.5 32.5q-8 25 -4 69v9v11v9q-4 18 -22 11q-4 -1 -11 -8z" />
    <glyph glyph-name="t" unicode="t" horiz-adv-x="280" 
d="M139 772q0 -1 1.5 -5t1.5 -6q4 -91 5 -139v-42t0.5 -45t2 -41t4.5 -44q5 -36 1 -65q-5 -33 0 -128q1 -18 1 -55q0 -42 -1 -62l-3 -84q-1 -10 -2.5 -28t-1.5 -27q0 -16 14 -19q16 -4 18 13q6 34 6 51q0 22 -0.5 67.5t-0.5 68.5l1 34q1 35 -1 35q-7 59 -2 128q2 37 0 73
q-1 9 -3.5 38.5t-3.5 45.5q-2 81 0 164q0 11 0.5 34.5t0.5 35.5q27 6 82 -9l11 13q11 23 -14 26q-28 2 -43 2q-16 1 -52 3.5t-51 3t-51 -2.5q-15 -1 -18 -6.5t4 -18.5q1 -2 4.5 -5t4.5 -5q10 0 29.5 3t28 2.5t27.5 -4.5z" />
    <glyph glyph-name="u" unicode="u" horiz-adv-x="320" 
d="M60 797v-54q3 -251 3 -252q5 -162 4 -278q-1 -18 -1 -52.5v-52.5q0 -33 18 -60q1 -1 5.5 -8.5t7.5 -11.5q36 -45 78 -42q13 2 25 0q35 -2 62 29.5t26 79.5q-1 29 3 82q10 108 9 189q-1 25 0 72t1 62q0 42 -0.5 126.5t-0.5 125.5q0 12 -1 18q-2 12 -13 14q-15 2 -17 -11
q-3 -12 -1 -26q4 -151 5 -230q1 -23 -2 -141q0 -6 0.5 -17t0.5 -17q2 -18 2 -27q-5 -74 -7 -100q-1 -12 -4.5 -39.5t-5 -48t-0.5 -40.5q2 -33 -19 -49q-39 -31 -81 -15q-37 12 -53 54q-11 26 -11 62q0 68 2 101q2 19 0 97.5t-2 97.5q0 35 -2.5 105.5t-3 105.5t2.5 105v32
q-1 18 -18 19q-2 0 -12 -5z" />
    <glyph glyph-name="v" unicode="v" horiz-adv-x="380" 
d="M206 79q-9 15 -13 49q-2 36 -7 62q-3 16 -22.5 130.5t-33.5 173.5q-4 19 -15.5 82t-20.5 97q-3 8 -7 24.5l-6 24.5q-10 34 -24 71q-4 13 -14 18q-5 4 -18 -1q-5 -3 -5 -14q1 -3 3 -10t3 -9q15 -31 19 -51l13 -46.5t13.5 -50.5l10.5 -46t10 -50q3 -21 11.5 -58.5
t10.5 -49.5l31 -196q8 -40 8 -46q1 -24 4.5 -49t10.5 -63.5t9 -48.5q1 -13 8 -26q5 -16 20 -16q12 1 20 17l3 11q1 6 10.5 48.5t13.5 64.5l20 141l24 165q1 7 2 22.5t2 23.5q2 25 8 75q11 49 11 50q3 29 16 79.5t16 68.5q0 1 1.5 6t2.5 9q1 3 5.5 12.5t6.5 15.5q7 20 -11 27
q-21 9 -28 -13l-20 -84q-2 -9 -5 -27t-5 -28q-1 -6 -3.5 -19t-3.5 -20q-10 -52 -14 -78q-8 -53 -8 -63q-1 -35 -10 -90l-24 -169q-1 -4 -5 -25.5t-5 -32.5q-1 -38 -19 -88z" />
    <glyph glyph-name="w" unicode="w" horiz-adv-x="470" 
d="M251 393l7.5 -37t7 -38.5t3.5 -30.5q5 -57 23 -164q2 -12 5.5 -35.5t5.5 -34.5q6 -34 21 -49q29 -24 34 15q1 6 1 19q1 10 4.5 42t6.5 49q27 192 30 262q0 21 4 59q11 62 18 149q5 66 11 90q9 32 16 76q2 10 -2 18t-12 9q-5 1 -11.5 -4.5t-7.5 -13.5q-1 -1 -1 -3
q-12 -86 -16 -125q-3 -25 -6 -53.5l-6.5 -62.5l-5.5 -53q-9 -78 -9 -79q0 -45 -15 -152q-3 -25 -10.5 -70.5t-9.5 -62.5q-2 -9 -6 -9q-1 -1 -4 0q-18 95 -20 110q-4 27 -10 76t-9 69q-7 51 -16 89q-1 9 -9 25q-4 6 -12.5 6.5t-12.5 -4.5q-13 -19 -12 -31q0 -7 -2 -21t-2 -18
q-8 -48 -8 -56q-2 -20 -4 -61l-3 -61q-1 -8 -7 -61t-9 -84q-7 14 -11 27.5t-6.5 34t-3.5 24.5q-4 20 -9.5 60t-9.5 60q-6 36 -20.5 108t-20.5 108q-9 51 -21 148q-5 56 -18 108q-3 15 -11 33q-7 18 -23 10q-11 -6 -5 -24q20 -68 24 -104q3 -31 15 -105q1 -13 7 -46
q20 -114 29 -171q3 -16 13 -73.5t15 -89.5q5 -27 12.5 -76.5t10.5 -66.5q1 -5 2 -16t2 -16q8 -29 35 -17q3 1 10 8q12 56 30 236q4 74 7 111q0 5 2.5 17.5z" />
    <glyph glyph-name="x" unicode="x" horiz-adv-x="350" 
d="M320 770l-9 -28l-92 -288l-13 -41q-1 -2 -3.5 -8.5t-3.5 -10.5q2 -4 2 -6l3 -9t4 -9q19 -60 23 -81q6 -26 20 -58l6 -17q3 -9 15 -40l19 -48q5 -15 11.5 -32.5l15 -39t12.5 -33.5q5 -8 1 -19q-3 -13 -12 -13q-8 0 -12 7q-5 13 -7 16q-2 8 -15 44q-30 74 -42 112
q-15 40 -30 91l-12 38q-3 12 -11 34q-1 2 -2 6t-2 6h-1q-4 0 -6 -5l-1 -2l-19 -57l-17 -52l-9 -28q-13 -38 -29 -91q-10 -29 -19 -71q-7 -41 -25 -63l-1 -2l-2 2q-17 12 -17 20q-2 8 5 18q6 14 12 40q2 6 7 26q1 2 2 5.5t1 4.5q2 8 2 11q2 7 10 29.5t12 35.5q20 55 30 86
q10 26 22 64l14 41l8 24q0 2 1.5 6t1.5 6l-3 13q-1 4 -6 17.5t-7 20.5l-2 5q0 1 -4 13.5t-6 19.5q-14 57 -68 223q-8 21 -19 57l-6 20q-1 4 -1 11q0 14 8 17h6q6 0 9 -3q5 -5 9 -18q7 -33 34 -112l23 -72l27 -92q2 -13 13 -49q0 -3 1 -4q4 -15 9 -17q3 3 3 7q6 14 8 21
q10 32 14 47q4 16 11 37l58 190l1 1l3 11q9 29 13 38q3 10 14 14q2 1 3 1q5 0 10 -7q4 -5 2 -14q-2 -8 -4 -13q0 -1 -1 -2v-2z" />
    <glyph glyph-name="y" unicode="y" horiz-adv-x="340" 
d="M162 494l20 -35q-2 -9 -6 -29.5t-7 -31.5q-6 -41 -15 -82q-17 -91 -18 -99q-4 -31 -20 -91q-3 -11 -9.5 -32l-11.5 -38t-9 -32q-3 -9 -1 -21q0 -12 11 -14q11 -1 17 10l3 14l30 103q2 6 4 20q20 127 39 209l5 25q3 26 8 53t14 64t12 52l42 159l24 93q3 14 -6 18
q-12 6 -20 -5q-4 -10 -4 -15q-8 -25 -10 -41l-35 -143l-26 -97q-10 6 -19 25q-48 94 -61 128q-1 4 -20 52t-26 75q-4 18 -24 13l-3 -18q7 -32 12 -43l47 -115z" />
    <glyph glyph-name="z" unicode="z" horiz-adv-x="320" 
d="M58 -8q14 -12 29 -10q5 0 15 0.5t15 0.5q3 0 27.5 -1.5t28.5 0.5q56 9 96 3q9 -1 13 9q6 14 0 20q-8 11 -13 8q-8 -3 -17 -3.5t-19.5 0t-16.5 0.5q-51 -4 -109 -4q-17 -1 -20.5 7t3.5 30q1 2 3.5 10t3.5 12q8 29 27 113q23 103 51 200q8 23 21 71.5t21 72.5q8 19 23 76
l17 58.5t15 51.5q3 13 10 40t10 40q-8 13 -25 11q-3 -1 -17 -3.5t-21 -3.5q-10 -2 -28 -3t-24 -2q-57 -7 -93 2q-5 1 -11 0q-5 0 -8 -7.5t1 -14.5q6 -14 21 -14h32.5t43 1.5t33.5 5.5q24 4 34 4q4 0 11.5 -2t9.5 -2q-4 -25 -6 -30q-2 -7 -6.5 -25t-6.5 -28
q-32 -119 -36 -131q-3 -11 -11.5 -35t-11.5 -35q-5 -17 -16 -57.5t-18 -62.5q-13 -39 -30 -111.5t-22 -90.5q-16 -82 -32 -117q-7 -18 -3 -32q3 -7 6 -22z" />
    <glyph glyph-name="braceleft" unicode="{" horiz-adv-x="281" 
d="M57 347q6 0 16.5 0.5t14.5 0.5q20 0 26 -20q7 -37 7 -48q0 -20 -0.5 -43t-1.5 -51t-1 -43q-2 -62 -2 -90q0 -7 -2 -27q-5 -33 11.5 -58t50.5 -23q4 0 16 -2q25 -5 40 7q5 4 7.5 14.5t-0.5 18.5q-7 11 -25 2q-8 -4 -12 -4q-7 0 -20.5 1.5t-21.5 1.5q-1 5 -8 18t-6 22
q0 2 1 25t2 35q1 29 2.5 86.5t2.5 85.5q5 71 -19 113q3 7 9 17q10 15 2 31q-5 30 -5 36q-1 49 0 97q5 72 -10 162q-8 40 13 86q7 20 29 17q5 -1 15 -2.5t15 -2.5q18 -2 20 18q1 11 -15 16l-45 9q-15 4 -31 -10q-21 -23 -31 -65q-8 -38 0 -102q4 -23 9 -94q3 -27 1 -60
q-4 -71 4 -98q1 -8 1 -25q-30 -13 -45 -10q-23 2 -29 -10q-4 -15 15 -32z" />
    <glyph glyph-name="bar" unicode="|" horiz-adv-x="190" 
d="M80 -70q2 -1 7.5 -5.5t8.5 -5.5q8 -4 14.5 0.5t7.5 15.5q1 3 1.5 12t0.5 12q-1 19 -2.5 57t-1.5 56q0 63 2 81q0 4 9 178q1 44 0.5 130.5t-0.5 129.5q-1 61 -1 189q-3 42 -3 45q0 13 -9 24q-13 16 -28 -4v-5t1 -5q5 -37 5 -104v-74v-92.5t2 -92.5q4 -120 -8 -241
q-1 -17 -2.5 -47.5t-2.5 -55.5t-1 -47v-151z" />
    <glyph glyph-name="braceright" unicode="}" horiz-adv-x="313" 
d="M257 439h-31q-20 0 -26 20q-1 5 -2.5 15t-2.5 18t-1 15q0 45 4 137q2 62 2 90q0 12 3 27q5 33 -11.5 58t-50.5 23q-4 0 -16 2q-26 6 -40 -6q-5 -4 -7.5 -14.5t0.5 -18.5q6 -10 25 -3q8 4 12 4q7 0 20.5 -1.5t21.5 -1.5q1 -5 8 -18t6 -22q-1 -10 -2 -30t-2 -30l-6 -172
q-6 -73 18 -113q-3 -7 -9 -17q-10 -15 -2 -31q5 -30 5 -36q0 -65 -1 -97q-6 -71 9 -162q6 -40 -14 -86q-7 -20 -29 -17q-5 1 -15 2.5t-15 2.5q-18 4 -20 -17q-1 -11 15 -17l45 -9q15 -4 31 10q21 23 31 65q8 41 1 102q-6 31 -8 94q-3 27 -1 60q4 71 -3 98q-1 8 -1 25
q30 13 45 9q23 -2 29 10q4 15 -15 32z" />
    <glyph glyph-name="exclamdown" unicode="&#xa1;" horiz-adv-x="182" 
d="M60 829q1 -29 27 -29q25 0 25 29q0 5 -1 7q-5 22 -28 22q-6 2 -13 -4.5t-9 -15.5q-1 -2 -1 -5v-4zM105 710q-18 2 -23.5 -0.5t-7.5 -14.5q-1 -11 -1 -33q3 -69 7 -205q2 -17 0 -33q-2 -69 -8 -215q-4 -81 -4 -183q0 -29 7 -69q1 -9 9.5 -11.5t15.5 3.5q11 6 7 18
q-10 34 -8 84q3 169 4 190q1 20 0.5 56.5t0.5 66t5 56.5q2 10 0 44q-5 197 -3 237q1 1 -1 9z" />
    <glyph glyph-name="dieresis" unicode="&#xa8;" horiz-adv-x="600" 
d="M421 776q0 20 -15 31q-10 1 -27.5 -8.5t-21.5 -18.5q-1 0 1 -19q-3 -1 1.5 -6.5t16 -12.5t26.5 -10q14 12 18 36q0 5 1 8zM247 776q0 22 -15 28q-9 3 -27 -5.5t-22 -17.5q-1 -1 -1 -3q-2 -13 8 -26.5t24 -16.5q11 -2 20 6t11 22q0 2 0.5 6.5t1.5 6.5z" />
    <glyph glyph-name="ordfeminine" unicode="&#xaa;" 
d="M175 693l13 -70q5 -36 -17 -38q-14 0 -18 10v18q-1 -2 -4 -5.5t-3 -4.5q-13 -12 -37 -8q-6 0 -11.5 1t-7.5 1q-42 15 -49 60q0 85 4 93q4 11 7 15.5t11 9t21 6.5q32 5 55.5 -18.5t32.5 -55.5l1 -3zM134 639q17 22 6 66t-40 44q-17 -2 -22 -11q-8 -9 -9.5 -39t1.5 -36
q4 -20 27 -30.5t37 6.5z" />
    <glyph glyph-name="degree" unicode="&#xb0;" horiz-adv-x="190" 
d="M31 677q7 -45 49 -60q2 0 7.5 -1t11.5 -1q24 -4 37 8q11 13 22 42t10 45q-6 30 -31.5 53t-62.5 18q-19 -3 -26 -9.5t-13 -21.5q-4 -8 -4 -73zM132 674l-8 -15q-14 -17 -37 -6.5t-27 30.5q-8 27 8 55q10 10 22 11q27 0 40 -27t2 -48z" />
    <glyph glyph-name="twosuperior" unicode="&#xb2;" horiz-adv-x="320" 
d="M78 629q1 1 2 3.5t2 4.5l2 4q11 13 27 25.5t26.5 19.5t21.5 19.5t11 25t-4 36.5q-5 15 -19 23t-32 5q-33 -4 -46 -22.5t-21 -55.5v-2q0 -8 19 -8q5 -1 7 5q1 6 5 25q6 29 40 33q13 2 19 -7t5 -23q-1 -20 -23 -35.5t-47 -36t-30 -50.5q-5 -25 9 -28q5 0 6 1q35 4 54 2h44
q9 0 13 4q1 0 -0.5 5l-3 10.5t-1.5 6.5t-4 5h-14q-4 0 -12 -0.5t-13 -0.5h-29q-12 2 -14 6z" />
    <glyph glyph-name="threesuperior" unicode="&#xb3;" horiz-adv-x="311" 
d="M82 736l-3 -16q-2 -6 -7 -6q-18 -1 -20 7v2q5 34 16.5 50.5t44.5 23.5q19 4 34 -3t19 -21q4 -17 5 -28.5t-3.5 -21t-6.5 -12.5t-12.5 -12t-11.5 -10q45 -30 28 -87q-4 -14 -20.5 -20t-34.5 -2q-24 4 -37.5 15.5t-17.5 22.5t-8 34q0 6 11.5 7.5t13.5 -5.5l3 -20
q6 -26 40 -32q14 -3 20 5.5t7 22.5q0 7 -1.5 12.5t-2.5 8.5t-5 7l-5.5 5.5t-8.5 6.5t-9 7q-8 6 -6 12q2 8 12.5 15.5t19.5 16.5t9 23t-6.5 22.5t-19.5 5.5q-34 -5 -37 -36z" />
    <glyph glyph-name="acute" unicode="&#xb4;" horiz-adv-x="600" 
d="M229 789q9 2 12 4q64 32 133 47q2 1 5.5 2.5t4.5 1.5q14 9 4 27q-7 11 -19 5q-4 -2 -21 -9.5l-26 -11.5l-46 -17t-36 -13q-14 -6 -19 -11t-1 -16z" />
    <glyph glyph-name="cedilla" unicode="&#xb8;" horiz-adv-x="600" 
d="M297 -34v-31q-2 -22 -2 -30q-1 -6 1 -18q4 -11 16 -11q14 0 17 10q3 7 3 18q-3 33 -3 35v25q2 13 -1 34q-2 20 -4 28q-4 11 -11 12t-22 -5q1 -9 2.5 -25t1.5 -24q0 -2 1 -9.5t1 -8.5z" />
    <glyph glyph-name="onesuperior" unicode="&#xb9;" horiz-adv-x="195" 
d="M66 705l49 37q0 -3 1.5 -7.5t1.5 -6.5l-3 -127q0 -10 13 -13q20 -5 24 23q1 6 1 12v171q-2 1 -6.5 2.5l-7.5 2.5t-6 1q-11 -2 -21 -12l-18 -18.5t-21 -19.5l-27 -22q-2 -2 -3 -5.5t-2 -4.5q8 -14 25 -13z" />
    <glyph glyph-name="ordmasculine" unicode="&#xba;" horiz-adv-x="220" 
d="M41 657q7 -45 49 -60q2 0 7.5 -1t11.5 -1q24 -4 37 8q11 12 20.5 41t8.5 46q-3 33 -28.5 64.5t-62.5 26.5q-19 -3 -26 -9.5t-13 -21.5q-4 -8 -4 -93zM78 738q5 9 22 11q29 0 40 -44t-6 -66q-14 -17 -37 -6.5t-27 30.5q-3 6 -1.5 36t9.5 39z" />
    <glyph glyph-name="questiondown" unicode="&#xbf;" horiz-adv-x="284" 
d="M196 821q-13 15 -17 18t-14 5q-31 6 -39 -23q-5 -19 14 -26q12 -5 35 1q17 6 21 25zM237 100q-14 -13 -16 -17.5t-2 -17.5q-1 -68 -66 -84q-26 -8 -53.5 6.5t-34.5 39.5q-22 77 3 136l72 164q42 86 46 179q1 19 1.5 53.5t0.5 45.5v51q2 20 -1 36q-1 8 -7 13t-13 4
q-6 1 -9.5 -4t-3.5 -14t0.5 -26t0.5 -25q0 -43 -2 -131q0 -7 -5 -40q0 -5 -2 -14.5l-3 -14.5q0 -23 -12 -50l-88 -204q-18 -46 -20 -70q-5 -47 16 -108q9 -31 32 -42q47 -27 92 -17q48 13 71.5 48t19.5 84q0 11 -17 19z" />
    <glyph glyph-name="Agrave" unicode="&#xc0;" 
d="M206 847q-8 2 -11 4q-62 34 -127 49q-2 0 -5 2t-4 2q-6 4 -7 12.5t3 15.5q7 12 18 6q30 -16 45 -22q15 -7 42 -17.5t36 -14.5q12 -5 18 -11q2 -2 2.5 -7.5t-1.5 -9.5zM85 77l6 25q21 -1 74 5.5t84 0.5l2.5 -17t1.5 -12q4 -41 7 -65q2 -15 18 -15q6 -1 11.5 3.5t6.5 11.5
q0 12 -1 18q-4 25 -14 75q-8 38 -11 57l-24 170q-19 144 -26 203q-2 14 -6.5 58.5t-7.5 68.5q-9 60 -7 83q0 10 -9 35q-2 6 -9.5 8t-12.5 -2q-24 -14 -26 -45q-10 -120 -13 -142q-4 -34 -13 -96t-12 -85l-28 -188l-13 -79q-2 -13 -7 -39.5t-7 -39.5l-9 -47q-3 -17 14 -22
q17 -3 21 14q7 42 10 58zM239 164v-17l-87 -9q-22 -2 -33 -1q-5 1 -22 8q-2 19 -1 27t4.5 25t4.5 25q3 24 10 68t9 58q2 15 5.5 43.5l6.5 51.5t6 43q2 13 7 38t7 37q0 3 13 111q8 -21 8 -23q2 -16 3.5 -34t3 -39t2.5 -33l4.5 -36.5l5.5 -42.5t5 -37q3 -23 10.5 -75l11.5 -80
q3 -18 8 -54t8 -54z" />
    <glyph glyph-name="Aacute" unicode="&#xc1;" 
d="M136 849q9 2 12 4q64 32 133 47q2 1 5.5 2.5t4.5 1.5q14 9 4 27q-7 11 -19 5q-4 -2 -21 -9.5l-26 -11.5l-46 -17t-36 -13q-14 -6 -19 -11t-1 -16zM85 77l6 25q21 -1 74 5.5t84 0.5l2.5 -17t1.5 -12q4 -41 7 -65q2 -15 18 -15q6 -1 11.5 3.5t6.5 11.5q0 12 -1 18
q-4 25 -14 75q-8 38 -11 57l-24 170q-19 144 -26 203q-2 14 -6.5 58.5t-7.5 68.5q-9 60 -7 83q0 10 -9 35q-2 6 -9.5 8t-12.5 -2q-24 -14 -26 -45q-10 -120 -13 -142q-4 -34 -13 -96t-12 -85l-28 -188l-13 -79q-2 -13 -7 -39.5t-7 -39.5l-9 -47q-3 -17 14 -22q17 -3 21 14
q7 42 10 58zM239 164v-17l-87 -9q-22 -2 -33 -1q-5 1 -22 8q-2 19 -1 27t4.5 25t4.5 25q3 24 10 68t9 58q2 15 5.5 43.5l6.5 51.5t6 43q2 13 7 38t7 37q0 3 13 111q8 -21 8 -23q2 -16 3.5 -34t3 -39t2.5 -33l4.5 -36.5l5.5 -42.5t5 -37q3 -23 10.5 -75l11.5 -80q3 -18 8 -54
t8 -54z" />
    <glyph glyph-name="Acircumflex" unicode="&#xc2;" 
d="M59 845q2 1 6.5 2t6.5 2q14 12 43.5 25.5t39.5 19.5q20 12 40 -4q27 -21 53 -38q13 -8 23 3q11 17 -3 26l-76 51q-11 8 -24 2l-82 -39q-24 -12 -34 -20q-8 -6 -6 -16q1 -3 6.5 -7.5t6.5 -6.5zM85 77l6 25q21 -1 74 5.5t84 0.5l2.5 -17t1.5 -12q4 -41 7 -65q2 -15 18 -15
q6 -1 11.5 3.5t6.5 11.5q0 12 -1 18q-4 25 -14 75q-8 38 -11 57l-24 170q-19 144 -26 203q-2 14 -6.5 58.5t-7.5 68.5q-9 60 -7 83q0 10 -9 35q-2 6 -9.5 8t-12.5 -2q-24 -14 -26 -45q-10 -120 -13 -142q-4 -34 -13 -96t-12 -85l-28 -188l-13 -79q-2 -13 -7 -39.5t-7 -39.5
l-9 -47q-3 -17 14 -22q17 -3 21 14q7 42 10 58zM239 164v-17l-87 -9q-22 -2 -33 -1q-5 1 -22 8q-2 19 -1 27t4.5 25t4.5 25q3 24 10 68t9 58q2 15 5.5 43.5l6.5 51.5t6 43q2 13 7 38t7 37q0 3 13 111q8 -21 8 -23q2 -16 3.5 -34t3 -39t2.5 -33l4.5 -36.5l5.5 -42.5t5 -37
q3 -23 10.5 -75l11.5 -80q3 -18 8 -54t8 -54z" />
    <glyph glyph-name="Atilde" unicode="&#xc3;" 
d="M39 883q8 -21 12 -23t15 9q19 19 49 12l63 -15q4 -1 26 -1q11 0 22.5 4t25.5 10t22 9q7 2 8.5 11.5t-4.5 17.5l-12 9q-45 -44 -106 -26q-10 3 -39 10q-51 12 -82 -27zM85 77l6 25q21 -1 74 5.5t84 0.5l2.5 -17t1.5 -12q4 -41 7 -65q2 -15 18 -15q6 -1 11.5 3.5t6.5 11.5
q0 12 -1 18q-4 25 -14 75q-8 38 -11 57l-24 170q-19 144 -26 203q-2 14 -6.5 58.5t-7.5 68.5q-9 60 -7 83q0 10 -9 35q-2 6 -9.5 8t-12.5 -2q-24 -14 -26 -45q-10 -120 -13 -142q-4 -34 -13 -96t-12 -85l-28 -188l-13 -79q-2 -13 -7 -39.5t-7 -39.5l-9 -47q-3 -17 14 -22
q17 -3 21 14q7 42 10 58zM239 164v-17l-87 -9q-22 -2 -33 -1q-5 1 -22 8q-2 19 -1 27t4.5 25t4.5 25q3 24 10 68t9 58q2 15 5.5 43.5l6.5 51.5t6 43q2 13 7 38t7 37q0 3 13 111q8 -21 8 -23q2 -16 3.5 -34t3 -39t2.5 -33l4.5 -36.5l5.5 -42.5t5 -37q3 -23 10.5 -75l11.5 -80
q3 -18 8 -54t8 -54z" />
    <glyph glyph-name="Adieresis" unicode="&#xc4;" 
d="M263 882q0 16 -12 25q-8 0 -22 -7.5t-17 -14.5q-1 0 0 -15q-2 -1 1.5 -5.5t13 -10t21.5 -7.5q11 9 14 28q0 4 1 7zM124 882q0 18 -12 22q-7 2 -22 -4.5t-18 -13.5v-3q-2 -10 6 -21t19 -13q9 -2 16.5 4.5t8.5 17.5q0 2 0.5 5.5t1.5 5.5zM85 77l6 25q21 -1 74 5.5t84 0.5
l2.5 -17t1.5 -12q4 -41 7 -65q2 -15 18 -15q6 -1 11.5 3.5t6.5 11.5q0 12 -1 18q-4 25 -14 75q-8 38 -11 57l-24 170q-19 144 -26 203q-2 14 -6.5 58.5t-7.5 68.5q-9 60 -7 83q0 10 -9 35q-2 6 -9.5 8t-12.5 -2q-24 -14 -26 -45q-10 -120 -13 -142q-4 -34 -13 -96t-12 -85
l-28 -188l-13 -79q-2 -13 -7 -39.5t-7 -39.5l-9 -47q-3 -17 14 -22q17 -3 21 14q7 42 10 58zM239 164v-17l-87 -9q-22 -2 -33 -1q-5 1 -22 8q-2 19 -1 27t4.5 25t4.5 25q3 24 10 68t9 58q2 15 5.5 43.5l6.5 51.5t6 43q2 13 7 38t7 37q0 3 13 111q8 -21 8 -23q2 -16 3.5 -34
t3 -39t2.5 -33l4.5 -36.5l5.5 -42.5t5 -37q3 -23 10.5 -75l11.5 -80q3 -18 8 -54t8 -54z" />
    <glyph glyph-name="Aring" unicode="&#xc5;" 
d="M128 882q3 -27 30 -37q1 0 4.5 -0.5t6.5 -0.5q14 -4 23 5q7 7 14 25t6 28q-5 18 -20.5 32t-37.5 11q-8 -1 -13 -4t-6.5 -5.5t-4.5 -9.5q-2 -5 -2 -44zM185 883l-4 -6q-6 -8 -17 -3t-13 14q-3 14 4 26l1 1q2 1 4.5 2.5t4.5 1.5q13 0 19 -12.5t1 -23.5zM85 77l6 25
q21 -1 74 5.5t84 0.5l2.5 -17t1.5 -12q4 -41 7 -65q2 -15 18 -15q6 -1 11.5 3.5t6.5 11.5q0 12 -1 18q-4 25 -14 75q-8 38 -11 57l-24 170q-19 144 -26 203q-2 14 -6.5 58.5t-7.5 68.5q-9 60 -7 83q0 10 -9 35q-2 6 -9.5 8t-12.5 -2q-24 -14 -26 -45q-10 -120 -13 -142
q-4 -34 -13 -96t-12 -85l-28 -188l-13 -79q-2 -13 -7 -39.5t-7 -39.5l-9 -47q-3 -17 14 -22q17 -3 21 14q7 42 10 58zM239 164v-17l-87 -9q-22 -2 -33 -1q-5 1 -22 8q-2 19 -1 27t4.5 25t4.5 25q3 24 10 68t9 58q2 15 5.5 43.5l6.5 51.5t6 43q2 13 7 38t7 37q0 3 13 111
q8 -21 8 -23q2 -16 3.5 -34t3 -39t2.5 -33l4.5 -36.5l5.5 -42.5t5 -37q3 -23 10.5 -75l11.5 -80q3 -18 8 -54t8 -54z" />
    <glyph glyph-name="Ccedilla" unicode="&#xc7;" 
d="M60 172h2q-2 38 -2 56q0 101 1 150q3 120 3 121q1 22 1.5 61t0.5 52q1 12 0 35.5t-1 32.5q0 6 2 19.5l3 20.5q2 40 44 71q36 25 79 16q18 -5 30 -20q27 -38 29 -57q3 -22 3 -64q1 -15 -14 -17q-16 -2 -18 15q-1 14 -1 38q-1 36 -28 60q-29 20 -57 1q-2 -1 -18 -15
q-12 -11 -15 -28q-9 -47 -6 -85q1 -8 -2 -97q-2 -72 -4 -109q-3 -30 -3 -63.5t1.5 -74t1.5 -62.5q0 -15 -1 -43t-1 -43q0 -22 3 -40q4 -57 56 -75q22 -6 35 -4q28 5 37 38q3 15 5 46q1 6 6 71q3 21 19 18q9 -1 15.5 -9t2.5 -17q-7 -16 -9 -46.5t-5 -41.5q-1 -5 -3 -16
t-3 -17q-12 -50 -60 -60l1 -10q3 -21 1 -34v-25q0 -2 3 -35q0 -10 -3 -18q-3 -10 -17 -10q-12 0 -16 11q-2 12 -1 18q0 5 0.5 14.5t0.5 15.5v31q1 2 0 9.5t-1 8.5l-2 24q-34 5 -67 40q-26 26 -26 66q1 13 -2 76z" />
    <glyph glyph-name="Egrave" unicode="&#xc8;" 
d="M214 847q-8 2 -11 4q-62 34 -127 49q-1 0 -4 2t-5 2q-6 4 -7 12.5t3 15.5q7 12 18 6q30 -16 45 -22q15 -7 42 -17.5t36 -14.5q12 -5 18 -11q2 -2 2.5 -7.5t-1.5 -9.5zM95 42h13q22 2 37 4q6 0 9 1h16h6h13q22 0 35 4q2 0 5 0.5t5.5 1t4.5 1.5h3h2q15 0 17 -14t-4 -23
q-5 -13 -17 -13q-1 0 -7 2q-3 2 -9 2q-5 0 -15 -2l-1 -1q-2 0 -3 -1q-6 -2 -9 -2q-2 0 -2 1q-6 1 -20 1q-10 0 -32 -2t-31 -2h-5q-15 0 -36 3q-6 1 -11 8.5t-5 15.5v5v1q1 1 1 2q6 46 4 126q0 9 2 29l2 20v25q2 56 6 110q3 28 -1 63q-4 69 -2 205v23q0 46 -3 88q-1 6 -1 18
t-1 18q0 5 -1 8q0 3 -0.5 9t-0.5 8q1 5 5.5 11t8.5 6h1q9 0 21 3q4 0 12 0.5t12 0.5h10q27 -3 56 -3q8 -1 26 -1h5q3 0 8 -0.5t8 -1.5q7 -1 12 -10q5 -6 3 -14q-5 -18 -18 -18h-5q-21 7 -51 7h-24q-14 -2 -29 0q-2 0 -4 1h-2q-9 0 -16 -5v-20v-51v-42q0 -21 -1 -33v-74
q0 -34 1 -51v-19q14 0 20 1q40 4 59 5q4 0 7 1q2 0 6 0.5t5 0.5q13 0 22 -9l2 -2v-2q-5 -35 -23 -35q-1 0 -13 2q-12 3 -30 3q-23 0 -55 -9v-3q8 -50 0 -135q-3 -39 -3 -82v-117v-48z" />
    <glyph glyph-name="Eacute" unicode="&#xc9;" 
d="M91 849q9 2 12 4q64 32 133 47q2 1 5.5 2.5t4.5 1.5q14 9 4 27q-7 11 -19 5q-4 -2 -21 -9.5l-26 -11.5l-46 -17t-36 -13q-14 -6 -19 -11t-1 -16zM95 42h13q22 2 37 4q6 0 9 1h16h6h13q22 0 35 4q2 0 5 0.5t5.5 1t4.5 1.5h3h2q15 0 17 -14t-4 -23q-5 -13 -17 -13
q-1 0 -7 2q-3 2 -9 2q-5 0 -15 -2l-1 -1q-2 0 -3 -1q-6 -2 -9 -2q-2 0 -2 1q-6 1 -20 1q-10 0 -32 -2t-31 -2h-5q-15 0 -36 3q-6 1 -11 8.5t-5 15.5v5v1q1 1 1 2q6 46 4 126q0 9 2 29l2 20v25q2 56 6 110q3 28 -1 63q-4 69 -2 205v23q0 46 -3 88q-1 6 -1 18t-1 18q0 5 -1 8
q0 3 -0.5 9t-0.5 8q1 5 5.5 11t8.5 6h1q9 0 21 3q4 0 12 0.5t12 0.5h10q27 -3 56 -3q8 -1 26 -1h5q3 0 8 -0.5t8 -1.5q7 -1 12 -10q5 -6 3 -14q-5 -18 -18 -18h-5q-21 7 -51 7h-24q-14 -2 -29 0q-2 0 -4 1h-2q-9 0 -16 -5v-20v-51v-42q0 -21 -1 -33v-74q0 -34 1 -51v-19
q14 0 20 1q40 4 59 5q4 0 7 1q2 0 6 0.5t5 0.5q13 0 22 -9l2 -2v-2q-5 -35 -23 -35q-1 0 -13 2q-12 3 -30 3q-23 0 -55 -9v-3q8 -50 0 -135q-3 -39 -3 -82v-117v-48z" />
    <glyph glyph-name="Ecircumflex" unicode="&#xca;" 
d="M52 861q2 1 6.5 2t6.5 2q14 12 43.5 25.5t39.5 19.5q20 12 40 -4q27 -21 53 -38q13 -8 23 3q11 17 -3 26l-76 51q-11 8 -24 2l-82 -39q-24 -12 -34 -20q-8 -6 -6 -16q1 -3 6.5 -7.5t6.5 -6.5zM95 42h13q22 2 37 4q6 0 9 1h16h6h13q22 0 35 4q2 0 5 0.5t5.5 1t4.5 1.5h3h2
q15 0 17 -14t-4 -23q-5 -13 -17 -13q-1 0 -7 2q-3 2 -9 2q-5 0 -15 -2l-1 -1q-2 0 -3 -1q-6 -2 -9 -2q-2 0 -2 1q-6 1 -20 1q-10 0 -32 -2t-31 -2h-5q-15 0 -36 3q-6 1 -11 8.5t-5 15.5v5v1q1 1 1 2q6 46 4 126q0 9 2 29l2 20v25q2 56 6 110q3 28 -1 63q-4 69 -2 205v23
q0 46 -3 88q-1 6 -1 18t-1 18q0 5 -1 8q0 3 -0.5 9t-0.5 8q1 5 5.5 11t8.5 6h1q9 0 21 3q4 0 12 0.5t12 0.5h10q27 -3 56 -3q8 -1 26 -1h5q3 0 8 -0.5t8 -1.5q7 -1 12 -10q5 -6 3 -14q-5 -18 -18 -18h-5q-21 7 -51 7h-24q-14 -2 -29 0q-2 0 -4 1h-2q-9 0 -16 -5v-20v-51v-42
q0 -21 -1 -33v-74q0 -34 1 -51v-19q14 0 20 1q40 4 59 5q4 0 7 1q2 0 6 0.5t5 0.5q13 0 22 -9l2 -2v-2q-5 -35 -23 -35q-1 0 -13 2q-12 3 -30 3q-23 0 -55 -9v-3q8 -50 0 -135q-3 -39 -3 -82v-117v-48z" />
    <glyph glyph-name="Edieresis" unicode="&#xcb;" 
d="M258 909q0 16 -12 25q-8 0 -22 -7.5t-17 -14.5q-1 0 0 -15q-2 -1 1.5 -5.5t13 -10t21.5 -7.5q11 9 14 28q0 4 1 7zM119 909q0 17 -12 22q-7 2 -22 -4.5t-18 -13.5v-3q-2 -10 6 -21t19 -13q9 -2 16.5 4.5t8.5 17.5q0 2 0.5 5.5t1.5 5.5zM95 42h13q22 2 37 4q6 0 9 1h16h6
h13q22 0 35 4q2 0 5 0.5t5.5 1t4.5 1.5h3h2q15 0 17 -14t-4 -23q-5 -13 -17 -13q-1 0 -7 2q-3 2 -9 2q-5 0 -15 -2l-1 -1q-2 0 -3 -1q-6 -2 -9 -2q-2 0 -2 1q-6 1 -20 1q-10 0 -32 -2t-31 -2h-5q-15 0 -36 3q-6 1 -11 8.5t-5 15.5v5v1q1 1 1 2q6 46 4 126q0 9 2 29l2 20v25
q2 56 6 110q3 28 -1 63q-4 69 -2 205v23q0 46 -3 88q-1 6 -1 18t-1 18q0 5 -1 8q0 3 -0.5 9t-0.5 8q1 5 5.5 11t8.5 6h1q9 0 21 3q4 0 12 0.5t12 0.5h10q27 -3 56 -3q8 -1 26 -1h5q3 0 8 -0.5t8 -1.5q7 -1 12 -10q5 -6 3 -14q-5 -18 -18 -18h-5q-21 7 -51 7h-24
q-14 -2 -29 0q-2 0 -4 1h-2q-9 0 -16 -5v-20v-51v-42q0 -21 -1 -33v-74q0 -34 1 -51v-19q14 0 20 1q40 4 59 5q4 0 7 1q2 0 6 0.5t5 0.5q13 0 22 -9l2 -2v-2q-5 -35 -23 -35q-1 0 -13 2q-12 3 -30 3q-23 0 -55 -9v-3q8 -50 0 -135q-3 -39 -3 -82v-117v-48z" />
    <glyph glyph-name="Igrave" unicode="&#xcc;" horiz-adv-x="187" 
d="M116 847q-8 2 -11 4q-62 34 -127 49q-2 0 -5 2t-4 2q-6 4 -7 12.5t3 15.5q7 12 18 6q30 -16 45 -22q15 -7 42 -17.5t36 -14.5q12 -5 18 -11q2 -2 2.5 -7.5t-1.5 -9.5zM98 8q1 0 6 -2.5t8 -3.5q18 -5 20 13q1 6 1 19q0 9 -1.5 32.5t-2 43.5t-0.5 32v29.5v27v19.5l4 67.5
t4 75.5q1 51 -2 231l-3 155q0 22 -2 33q-2 12 -10 18q-11 8 -23 -5q-2 -6 -1 -10q4 -20 5 -45t1 -55.5t1 -43.5q1 -20 1 -85.5t2 -90.5q5 -72 -4 -190q-7 -86 -6 -128q2 -74 2 -137z" />
    <glyph glyph-name="Iacute" unicode="&#xcd;" horiz-adv-x="185" 
d="M93 849q9 2 12 4q64 32 133 47q2 1 5.5 2.5t4.5 1.5q14 9 4 27q-7 11 -19 5q-4 -2 -21 -9.5l-26 -11.5l-46 -17t-36 -13q-14 -6 -19 -11t-1 -16zM84 8q1 0 6 -2.5t8 -3.5q18 -5 20 13q1 6 1 19q0 9 -1.5 32.5t-2 43.5t-0.5 32v29.5v27v19.5l4 67.5t4 75.5q1 51 -2 231
l-3 155q0 22 -2 33q-2 12 -10 18q-11 8 -23 -5q-2 -6 -1 -10q4 -20 5 -45t1 -55.5t1 -43.5q1 -20 1 -85.5t2 -90.5q5 -72 -4 -190q-7 -86 -6 -128q2 -74 2 -137z" />
    <glyph glyph-name="Icircumflex" unicode="&#xce;" horiz-adv-x="191" 
d="M-15 818q2 1 6.5 2t6.5 2q14 12 43.5 25.5t39.5 19.5q20 12 40 -4q27 -21 53 -38q13 -8 23 3q11 17 -3 26l-76 51q-11 8 -24 2l-82 -39q-24 -12 -34 -20q-8 -6 -6 -16q1 -3 6.5 -7.5t6.5 -6.5zM82 8q1 0 6 -2.5t8 -3.5q18 -5 20 13q1 6 1 19q0 9 -1.5 32.5t-2 43.5
t-0.5 32v29.5v27v19.5l4 67.5t4 75.5q1 51 -2 231l-3 155q0 22 -2 33q-2 12 -10 18q-11 8 -23 -5q-2 -6 -1 -10q4 -20 5 -45t1 -55.5t1 -43.5q1 -20 1 -85.5t2 -90.5q5 -72 -4 -190q-7 -86 -6 -128q2 -74 2 -137z" />
    <glyph glyph-name="Idieresis" unicode="&#xcf;" horiz-adv-x="193" 
d="M193 890q0 16 -12 25q-8 0 -22 -7.5t-17 -14.5q-1 0 0 -15q-2 -1 1.5 -5.5t13 -10t21.5 -7.5q11 9 14 28q0 4 1 7zM54 890q0 18 -12 22q-7 2 -22 -4.5t-18 -13.5v-3q-2 -10 6 -21t19 -13q9 -2 16.5 4.5t8.5 17.5q0 2 0.5 5.5t1.5 5.5zM79 8q1 0 6 -2.5t8 -3.5
q18 -5 20 13q1 6 1 19q0 9 -1.5 32.5t-2 43.5t-0.5 32v29.5v27v19.5l4 67.5t4 75.5q1 51 -2 231l-3 155q0 22 -2 33q-2 12 -10 18q-11 8 -23 -5q-2 -6 -1 -10q4 -20 5 -45t1 -55.5t1 -43.5q1 -20 1 -85.5t2 -90.5q5 -72 -4 -190q-7 -86 -6 -128q2 -74 2 -137z" />
    <glyph glyph-name="Ograve" unicode="&#xd2;" horiz-adv-x="333" 
d="M214 847q-8 2 -11 4q-62 34 -127 49q-1 0 -4 2t-5 2q-6 4 -7 12.5t3 15.5q7 12 18 6q30 -16 45 -22q15 -7 42 -17.5t36 -14.5q12 -5 18 -11q2 -2 2.5 -7.5t-1.5 -9.5zM60 200v-102q0 -40 31 -69q34 -32 91 -39q33 -3 61.5 20t37.5 59q16 63 19 146q2 80 0 242
q0 150 -2 226q-2 68 -51 100q-22 14 -57 24q-29 8 -39 2q-5 -3 -9 -8q-1 -2 -3 -2.5t-5 -0.5t-5 -1q-26 -13 -38 -32q-30 -49 -37 -87q-6 -40 -14 -113q0 -6 0.5 -12.5t1.5 -15t1 -13.5q2 -14 2 -22q1 -11 2.5 -32t2.5 -38t1 -32q2 -39 5 -108zM269 402v-15q3 -20 3 -42
t-1.5 -48.5t-1.5 -41.5q0 -8 1 -11q2 -21 0 -43t-6 -50t-5 -42q-4 -37 -39 -74q-11 -13 -35 -9q-29 4 -47 12q-47 22 -47 72v89q0 22 -1 46t-2.5 53t-2.5 45q-6 96 -8 144q-1 4 -1 11.5v10.5q-12 62 11 168q6 37 28 64q14 19 34 23q4 1 14 5l15 6q9 2 13 0q37 -20 45 -26
q30 -24 30 -61v-37q0 -8 2 -30.5t2 -33.5q1 -34 -1 -98v-34v-53z" />
    <glyph glyph-name="Oacute" unicode="&#xd3;" horiz-adv-x="333" 
d="M131 849q9 2 12 4q64 32 133 47q2 1 5.5 2.5t4.5 1.5q14 9 4 27q-7 11 -19 5q-4 -2 -21 -9.5l-26 -11.5l-46 -17t-36 -13q-14 -6 -19 -11t-1 -16zM60 200v-102q0 -40 31 -69q34 -32 91 -39q33 -3 61.5 20t37.5 59q16 63 19 146q2 80 0 242q0 150 -2 226q-2 68 -51 100
q-22 14 -57 24q-29 8 -39 2q-5 -3 -9 -8q-1 -2 -3 -2.5t-5 -0.5t-5 -1q-26 -13 -38 -32q-30 -49 -37 -87q-6 -40 -14 -113q0 -6 0.5 -12.5t1.5 -15t1 -13.5q2 -14 2 -22q1 -11 2.5 -32t2.5 -38t1 -32q2 -39 5 -108zM269 402v-15q3 -20 3 -42t-1.5 -48.5t-1.5 -41.5
q0 -8 1 -11q2 -21 0 -43t-6 -50t-5 -42q-4 -37 -39 -74q-11 -13 -35 -9q-29 4 -47 12q-47 22 -47 72v89q0 22 -1 46t-2.5 53t-2.5 45q-6 96 -8 144q-1 4 -1 11.5v10.5q-12 62 11 168q6 37 28 64q14 19 34 23q4 1 14 5l15 6q9 2 13 0q37 -20 45 -26q30 -24 30 -61v-37
q0 -8 2 -30.5t2 -33.5q1 -34 -1 -98v-34v-53z" />
    <glyph glyph-name="Ocircumflex" unicode="&#xd4;" horiz-adv-x="333" 
d="M82 843q2 1 6.5 2t6.5 2q14 12 43.5 25.5t39.5 19.5q20 12 40 -4q27 -21 53 -38q13 -8 23 3q11 17 -3 26l-76 51q-11 8 -24 2l-82 -39q-24 -12 -34 -20q-8 -6 -6 -16q1 -3 6.5 -7.5t6.5 -6.5zM60 200v-102q0 -40 31 -69q34 -32 91 -39q33 -3 61.5 20t37.5 59
q16 63 19 146q2 80 0 242q0 150 -2 226q-2 68 -51 100q-22 14 -57 24q-29 8 -39 2q-5 -3 -9 -8q-1 -2 -3 -2.5t-5 -0.5t-5 -1q-26 -13 -38 -32q-30 -49 -37 -87q-6 -40 -14 -113q0 -6 0.5 -12.5t1.5 -15t1 -13.5q2 -14 2 -22q1 -11 2.5 -32t2.5 -38t1 -32q2 -39 5 -108z
M269 402v-15q3 -20 3 -42t-1.5 -48.5t-1.5 -41.5q0 -8 1 -11q2 -21 0 -43t-6 -50t-5 -42q-4 -37 -39 -74q-11 -13 -35 -9q-29 4 -47 12q-47 22 -47 72v89q0 22 -1 46t-2.5 53t-2.5 45q-6 96 -8 144q-1 4 -1 11.5v10.5q-12 62 11 168q6 37 28 64q14 19 34 23q4 1 14 5l15 6
q9 2 13 0q37 -20 45 -26q30 -24 30 -61v-37q0 -8 2 -30.5t2 -33.5q1 -34 -1 -98v-34v-53z" />
    <glyph glyph-name="Otilde" unicode="&#xd5;" horiz-adv-x="333" 
d="M55 891q8 -21 12 -23t15 9q19 19 49 12l63 -15q4 -1 26 -1q11 0 22.5 4t25.5 10t22 9q7 2 8.5 11.5t-4.5 17.5l-12 9q-45 -44 -106 -26q-10 3 -39 10q-51 12 -82 -27zM60 200v-102q0 -40 31 -69q34 -32 91 -39q33 -3 61.5 20t37.5 59q16 63 19 146q2 80 0 242
q0 150 -2 226q-2 68 -51 100q-22 14 -57 24q-29 8 -39 2q-5 -3 -9 -8q-1 -2 -3 -2.5t-5 -0.5t-5 -1q-26 -13 -38 -32q-30 -49 -37 -87q-6 -40 -14 -113q0 -6 0.5 -12.5t1.5 -15t1 -13.5q2 -14 2 -22q1 -11 2.5 -32t2.5 -38t1 -32q2 -39 5 -108zM269 402v-15q3 -20 3 -42
t-1.5 -48.5t-1.5 -41.5q0 -8 1 -11q2 -21 0 -43t-6 -50t-5 -42q-4 -37 -39 -74q-11 -13 -35 -9q-29 4 -47 12q-47 22 -47 72v89q0 22 -1 46t-2.5 53t-2.5 45q-6 96 -8 144q-1 4 -1 11.5v10.5q-12 62 11 168q6 37 28 64q14 19 34 23q4 1 14 5l15 6q9 2 13 0q37 -20 45 -26
q30 -24 30 -61v-37q0 -8 2 -30.5t2 -33.5q1 -34 -1 -98v-34v-53z" />
    <glyph glyph-name="Odieresis" unicode="&#xd6;" horiz-adv-x="333" 
d="M273 897q0 16 -12 25q-8 0 -22 -7.5t-17 -14.5q-1 0 0 -15q-2 -1 1.5 -5.5t13 -10t21.5 -7.5q11 9 14 28q0 4 1 7zM134 897q0 17 -12 22q-7 2 -22 -4.5t-18 -13.5v-3q-2 -10 6 -21t19 -13q9 -2 16.5 4.5t8.5 17.5q0 2 0.5 5.5t1.5 5.5zM60 200v-102q0 -40 31 -69
q34 -32 91 -39q33 -3 61.5 20t37.5 59q16 63 19 146q2 80 0 242q0 150 -2 226q-2 68 -51 100q-22 14 -57 24q-29 8 -39 2q-5 -3 -9 -8q-1 -2 -3 -2.5t-5 -0.5t-5 -1q-26 -13 -38 -32q-30 -49 -37 -87q-6 -40 -14 -113q0 -6 0.5 -12.5t1.5 -15t1 -13.5q2 -14 2 -22
q1 -11 2.5 -32t2.5 -38t1 -32q2 -39 5 -108zM269 402v-15q3 -20 3 -42t-1.5 -48.5t-1.5 -41.5q0 -8 1 -11q2 -21 0 -43t-6 -50t-5 -42q-4 -37 -39 -74q-11 -13 -35 -9q-29 4 -47 12q-47 22 -47 72v89q0 22 -1 46t-2.5 53t-2.5 45q-6 96 -8 144q-1 4 -1 11.5v10.5
q-12 62 11 168q6 37 28 64q14 19 34 23q4 1 14 5l15 6q9 2 13 0q37 -20 45 -26q30 -24 30 -61v-37q0 -8 2 -30.5t2 -33.5q1 -34 -1 -98v-34v-53z" />
    <glyph glyph-name="Ugrave" unicode="&#xd9;" horiz-adv-x="320" 
d="M221 847q-8 2 -11 4q-62 34 -127 49q-2 0 -5 2t-4 2q-6 4 -7 12.5t3 15.5q7 12 18 6q30 -16 45 -22q15 -7 42 -17.5t36 -14.5q12 -5 18 -11q2 -2 2.5 -7.5t-1.5 -9.5zM60 797v-54q3 -251 3 -252q5 -162 4 -278q-1 -18 -1 -52.5v-52.5q0 -33 18 -60q1 -1 5.5 -8.5
t7.5 -11.5q36 -45 78 -42q13 2 25 0q35 -2 62 29.5t26 79.5q-1 29 3 82q10 108 9 189q-1 25 0 72t1 62q0 42 -0.5 126.5t-0.5 125.5q0 12 -1 18q-2 12 -13 14q-15 2 -17 -11q-3 -12 -1 -26q4 -151 5 -230q1 -23 -2 -141q0 -6 0.5 -17t0.5 -17q2 -18 2 -27q-5 -74 -7 -100
q-1 -12 -4.5 -39.5t-5 -48t-0.5 -40.5q2 -33 -19 -49q-39 -31 -81 -15q-37 12 -53 54q-11 26 -11 62q0 68 2 101q2 19 0 97.5t-2 97.5q0 35 -2.5 105.5t-3 105.5t2.5 105v32q-1 18 -18 19q-2 0 -12 -5z" />
    <glyph glyph-name="Uacute" unicode="&#xda;" horiz-adv-x="320" 
d="M153 849q9 2 12 4q64 32 133 47q2 1 5.5 2.5t4.5 1.5q14 9 4 27q-7 11 -19 5q-4 -2 -21 -9.5l-26 -11.5l-46 -17t-36 -13q-14 -6 -19 -11t-1 -16zM60 797v-54q3 -251 3 -252q5 -162 4 -278q-1 -18 -1 -52.5v-52.5q0 -33 18 -60q1 -1 5.5 -8.5t7.5 -11.5q36 -45 78 -42
q13 2 25 0q35 -2 62 29.5t26 79.5q-1 29 3 82q10 108 9 189q-1 25 0 72t1 62q0 42 -0.5 126.5t-0.5 125.5q0 12 -1 18q-2 12 -13 14q-15 2 -17 -11q-3 -12 -1 -26q4 -151 5 -230q1 -23 -2 -141q0 -6 0.5 -17t0.5 -17q2 -18 2 -27q-5 -74 -7 -100q-1 -12 -4.5 -39.5t-5 -48
t-0.5 -40.5q2 -33 -19 -49q-39 -31 -81 -15q-37 12 -53 54q-11 26 -11 62q0 68 2 101q2 19 0 97.5t-2 97.5q0 35 -2.5 105.5t-3 105.5t2.5 105v32q-1 18 -18 19q-2 0 -12 -5z" />
    <glyph glyph-name="Ucircumflex" unicode="&#xdb;" horiz-adv-x="320" 
d="M87 851q2 1 6.5 2t6.5 2q14 12 43.5 25.5t39.5 19.5q20 12 40 -4q27 -21 53 -38q13 -8 23 3q11 17 -3 26l-76 51q-11 8 -24 2l-82 -39q-24 -12 -34 -20q-8 -6 -6 -16q1 -3 6.5 -7.5t6.5 -6.5zM60 797v-54q3 -251 3 -252q5 -162 4 -278q-1 -18 -1 -52.5v-52.5
q0 -33 18 -60q1 -1 5.5 -8.5t7.5 -11.5q36 -45 78 -42q13 2 25 0q35 -2 62 29.5t26 79.5q-1 29 3 82q10 108 9 189q-1 25 0 72t1 62q0 42 -0.5 126.5t-0.5 125.5q0 12 -1 18q-2 12 -13 14q-15 2 -17 -11q-3 -12 -1 -26q4 -151 5 -230q1 -23 -2 -141q0 -6 0.5 -17t0.5 -17
q2 -18 2 -27q-5 -74 -7 -100q-1 -12 -4.5 -39.5t-5 -48t-0.5 -40.5q2 -33 -19 -49q-39 -31 -81 -15q-37 12 -53 54q-11 26 -11 62q0 68 2 101q2 19 0 97.5t-2 97.5q0 35 -2.5 105.5t-3 105.5t2.5 105v32q-1 18 -18 19q-2 0 -12 -5z" />
    <glyph glyph-name="Udieresis" unicode="&#xdc;" horiz-adv-x="320" 
d="M281 903q0 16 -12 25q-8 0 -22 -7.5t-17 -14.5q-1 0 0 -15q-2 -1 1.5 -5.5t13 -10t21.5 -7.5q11 9 14 28q0 4 1 7zM142 903q0 17 -12 22q-7 2 -22 -4.5t-18 -13.5v-3q-2 -10 6 -21t19 -13q9 -2 16.5 4.5t8.5 17.5q0 2 0.5 5.5t1.5 5.5zM60 797v-54q3 -251 3 -252
q5 -162 4 -278q-1 -18 -1 -52.5v-52.5q0 -33 18 -60q1 -1 5.5 -8.5t7.5 -11.5q36 -45 78 -42q13 2 25 0q35 -2 62 29.5t26 79.5q-1 29 3 82q10 108 9 189q-1 25 0 72t1 62q0 42 -0.5 126.5t-0.5 125.5q0 12 -1 18q-2 12 -13 14q-15 2 -17 -11q-3 -12 -1 -26q4 -151 5 -230
q1 -23 -2 -141q0 -6 0.5 -17t0.5 -17q2 -18 2 -27q-5 -74 -7 -100q-1 -12 -4.5 -39.5t-5 -48t-0.5 -40.5q2 -33 -19 -49q-39 -31 -81 -15q-37 12 -53 54q-11 26 -11 62q0 68 2 101q2 19 0 97.5t-2 97.5q0 35 -2.5 105.5t-3 105.5t2.5 105v32q-1 18 -18 19q-2 0 -12 -5z" />
    <glyph glyph-name="agrave" unicode="&#xe0;" 
d="M206 847q-8 2 -11 4q-62 34 -127 49q-2 0 -5 2t-4 2q-6 4 -7 12.5t3 15.5q7 12 18 6q30 -16 45 -22q15 -7 42 -17.5t36 -14.5q12 -5 18 -11q2 -2 2.5 -7.5t-1.5 -9.5zM85 77l6 25q21 -1 74 5.5t84 0.5l2.5 -17t1.5 -12q4 -41 7 -65q2 -15 18 -15q6 -1 11.5 3.5t6.5 11.5
q0 12 -1 18q-4 25 -14 75q-8 38 -11 57l-24 170q-19 144 -26 203q-2 14 -6.5 58.5t-7.5 68.5q-9 60 -7 83q0 10 -9 35q-2 6 -9.5 8t-12.5 -2q-24 -14 -26 -45q-10 -120 -13 -142q-4 -34 -13 -96t-12 -85l-28 -188l-13 -79q-2 -13 -7 -39.5t-7 -39.5l-9 -47q-3 -17 14 -22
q17 -3 21 14q7 42 10 58zM239 164v-17l-87 -9q-22 -2 -33 -1q-5 1 -22 8q-2 19 -1 27t4.5 25t4.5 25q3 24 10 68t9 58q2 15 5.5 43.5l6.5 51.5t6 43q2 13 7 38t7 37q0 3 13 111q8 -21 8 -23q2 -16 3.5 -34t3 -39t2.5 -33l4.5 -36.5l5.5 -42.5t5 -37q3 -23 10.5 -75l11.5 -80
q3 -18 8 -54t8 -54z" />
    <glyph glyph-name="aacute" unicode="&#xe1;" 
d="M136 849q9 2 12 4q64 32 133 47q2 1 5.5 2.5t4.5 1.5q14 9 4 27q-7 11 -19 5q-4 -2 -21 -9.5l-26 -11.5l-46 -17t-36 -13q-14 -6 -19 -11t-1 -16zM85 77l6 25q21 -1 74 5.5t84 0.5l2.5 -17t1.5 -12q4 -41 7 -65q2 -15 18 -15q6 -1 11.5 3.5t6.5 11.5q0 12 -1 18
q-4 25 -14 75q-8 38 -11 57l-24 170q-19 144 -26 203q-2 14 -6.5 58.5t-7.5 68.5q-9 60 -7 83q0 10 -9 35q-2 6 -9.5 8t-12.5 -2q-24 -14 -26 -45q-10 -120 -13 -142q-4 -34 -13 -96t-12 -85l-28 -188l-13 -79q-2 -13 -7 -39.5t-7 -39.5l-9 -47q-3 -17 14 -22q17 -3 21 14
q7 42 10 58zM239 164v-17l-87 -9q-22 -2 -33 -1q-5 1 -22 8q-2 19 -1 27t4.5 25t4.5 25q3 24 10 68t9 58q2 15 5.5 43.5l6.5 51.5t6 43q2 13 7 38t7 37q0 3 13 111q8 -21 8 -23q2 -16 3.5 -34t3 -39t2.5 -33l4.5 -36.5l5.5 -42.5t5 -37q3 -23 10.5 -75l11.5 -80q3 -18 8 -54
t8 -54z" />
    <glyph glyph-name="acircumflex" unicode="&#xe2;" 
d="M59 845q2 1 6.5 2t6.5 2q14 12 43.5 25.5t39.5 19.5q20 12 40 -4q27 -21 53 -38q13 -8 23 3q11 17 -3 26l-76 51q-11 8 -24 2l-82 -39q-24 -12 -34 -20q-8 -6 -6 -16q1 -3 6.5 -7.5t6.5 -6.5zM85 77l6 25q21 -1 74 5.5t84 0.5l2.5 -17t1.5 -12q4 -41 7 -65q2 -15 18 -15
q6 -1 11.5 3.5t6.5 11.5q0 12 -1 18q-4 25 -14 75q-8 38 -11 57l-24 170q-19 144 -26 203q-2 14 -6.5 58.5t-7.5 68.5q-9 60 -7 83q0 10 -9 35q-2 6 -9.5 8t-12.5 -2q-24 -14 -26 -45q-10 -120 -13 -142q-4 -34 -13 -96t-12 -85l-28 -188l-13 -79q-2 -13 -7 -39.5t-7 -39.5
l-9 -47q-3 -17 14 -22q17 -3 21 14q7 42 10 58zM239 164v-17l-87 -9q-22 -2 -33 -1q-5 1 -22 8q-2 19 -1 27t4.5 25t4.5 25q3 24 10 68t9 58q2 15 5.5 43.5l6.5 51.5t6 43q2 13 7 38t7 37q0 3 13 111q8 -21 8 -23q2 -16 3.5 -34t3 -39t2.5 -33l4.5 -36.5l5.5 -42.5t5 -37
q3 -23 10.5 -75l11.5 -80q3 -18 8 -54t8 -54z" />
    <glyph glyph-name="atilde" unicode="&#xe3;" 
d="M39 883q8 -21 12 -23t15 9q19 19 49 12l63 -15q4 -1 26 -1q11 0 22.5 4t25.5 10t22 9q7 2 8.5 11.5t-4.5 17.5l-12 9q-45 -44 -106 -26q-10 3 -39 10q-51 12 -82 -27zM85 77l6 25q21 -1 74 5.5t84 0.5l2.5 -17t1.5 -12q4 -41 7 -65q2 -15 18 -15q6 -1 11.5 3.5t6.5 11.5
q0 12 -1 18q-4 25 -14 75q-8 38 -11 57l-24 170q-19 144 -26 203q-2 14 -6.5 58.5t-7.5 68.5q-9 60 -7 83q0 10 -9 35q-2 6 -9.5 8t-12.5 -2q-24 -14 -26 -45q-10 -120 -13 -142q-4 -34 -13 -96t-12 -85l-28 -188l-13 -79q-2 -13 -7 -39.5t-7 -39.5l-9 -47q-3 -17 14 -22
q17 -3 21 14q7 42 10 58zM239 164v-17l-87 -9q-22 -2 -33 -1q-5 1 -22 8q-2 19 -1 27t4.5 25t4.5 25q3 24 10 68t9 58q2 15 5.5 43.5l6.5 51.5t6 43q2 13 7 38t7 37q0 3 13 111q8 -21 8 -23q2 -16 3.5 -34t3 -39t2.5 -33l4.5 -36.5l5.5 -42.5t5 -37q3 -23 10.5 -75l11.5 -80
q3 -18 8 -54t8 -54z" />
    <glyph glyph-name="adieresis" unicode="&#xe4;" 
d="M263 882q0 16 -12 25q-8 0 -22 -7.5t-17 -14.5q-1 0 0 -15q-2 -1 1.5 -5.5t13 -10t21.5 -7.5q11 9 14 28q0 4 1 7zM124 882q0 18 -12 22q-7 2 -22 -4.5t-18 -13.5v-3q-2 -10 6 -21t19 -13q9 -2 16.5 4.5t8.5 17.5q0 2 0.5 5.5t1.5 5.5zM85 77l6 25q21 -1 74 5.5t84 0.5
l2.5 -17t1.5 -12q4 -41 7 -65q2 -15 18 -15q6 -1 11.5 3.5t6.5 11.5q0 12 -1 18q-4 25 -14 75q-8 38 -11 57l-24 170q-19 144 -26 203q-2 14 -6.5 58.5t-7.5 68.5q-9 60 -7 83q0 10 -9 35q-2 6 -9.5 8t-12.5 -2q-24 -14 -26 -45q-10 -120 -13 -142q-4 -34 -13 -96t-12 -85
l-28 -188l-13 -79q-2 -13 -7 -39.5t-7 -39.5l-9 -47q-3 -17 14 -22q17 -3 21 14q7 42 10 58zM239 164v-17l-87 -9q-22 -2 -33 -1q-5 1 -22 8q-2 19 -1 27t4.5 25t4.5 25q3 24 10 68t9 58q2 15 5.5 43.5l6.5 51.5t6 43q2 13 7 38t7 37q0 3 13 111q8 -21 8 -23q2 -16 3.5 -34
t3 -39t2.5 -33l4.5 -36.5l5.5 -42.5t5 -37q3 -23 10.5 -75l11.5 -80q3 -18 8 -54t8 -54z" />
    <glyph glyph-name="aring" unicode="&#xe5;" 
d="M128 882q3 -27 30 -37q1 0 4.5 -0.5t6.5 -0.5q14 -4 23 5q7 7 14 25t6 28q-5 18 -20.5 32t-37.5 11q-8 -1 -13 -4t-6.5 -5.5t-4.5 -9.5q-2 -5 -2 -44zM185 883l-4 -6q-6 -8 -17 -3t-13 14q-3 14 4 26l1 1q2 1 4.5 2.5t4.5 1.5q13 0 19 -12.5t1 -23.5zM85 77l6 25
q21 -1 74 5.5t84 0.5l2.5 -17t1.5 -12q4 -41 7 -65q2 -15 18 -15q6 -1 11.5 3.5t6.5 11.5q0 12 -1 18q-4 25 -14 75q-8 38 -11 57l-24 170q-19 144 -26 203q-2 14 -6.5 58.5t-7.5 68.5q-9 60 -7 83q0 10 -9 35q-2 6 -9.5 8t-12.5 -2q-24 -14 -26 -45q-10 -120 -13 -142
q-4 -34 -13 -96t-12 -85l-28 -188l-13 -79q-2 -13 -7 -39.5t-7 -39.5l-9 -47q-3 -17 14 -22q17 -3 21 14q7 42 10 58zM239 164v-17l-87 -9q-22 -2 -33 -1q-5 1 -22 8q-2 19 -1 27t4.5 25t4.5 25q3 24 10 68t9 58q2 15 5.5 43.5l6.5 51.5t6 43q2 13 7 38t7 37q0 3 13 111
q8 -21 8 -23q2 -16 3.5 -34t3 -39t2.5 -33l4.5 -36.5l5.5 -42.5t5 -37q3 -23 10.5 -75l11.5 -80q3 -18 8 -54t8 -54z" />
    <glyph glyph-name="ccedilla" unicode="&#xe7;" 
d="M60 172h2q-2 38 -2 56q0 101 1 150q3 120 3 121q1 22 1.5 61t0.5 52q1 12 0 35.5t-1 32.5q0 6 2 19.5l3 20.5q2 40 44 71q36 25 79 16q18 -5 30 -20q27 -38 29 -57q3 -22 3 -64q1 -15 -14 -17q-16 -2 -18 15q-1 14 -1 38q-1 36 -28 60q-29 20 -57 1q-2 -1 -18 -15
q-12 -11 -15 -28q-9 -47 -6 -85q1 -8 -2 -97q-2 -72 -4 -109q-3 -30 -3 -63.5t1.5 -74t1.5 -62.5q0 -15 -1 -43t-1 -43q0 -22 3 -40q4 -57 56 -75q22 -6 35 -4q28 5 37 38q3 15 5 46q1 6 6 71q3 21 19 18q9 -1 15.5 -9t2.5 -17q-7 -16 -9 -46.5t-5 -41.5q-1 -5 -3 -16
t-3 -17q-12 -50 -60 -60l1 -10q3 -21 1 -34v-25q0 -2 3 -35q0 -10 -3 -18q-3 -10 -17 -10q-12 0 -16 11q-2 12 -1 18q0 5 0.5 14.5t0.5 15.5v31q1 2 0 9.5t-1 8.5l-2 24q-34 5 -67 40q-26 26 -26 66q1 13 -2 76z" />
    <glyph glyph-name="egrave" unicode="&#xe8;" 
d="M214 847q-8 2 -11 4q-62 34 -127 49q-1 0 -4 2t-5 2q-6 4 -7 12.5t3 15.5q7 12 18 6q30 -16 45 -22q15 -7 42 -17.5t36 -14.5q12 -5 18 -11q2 -2 2.5 -7.5t-1.5 -9.5zM95 42h13q22 2 37 4q6 0 9 1h16h6h13q22 0 35 4q2 0 5 0.5t5.5 1t4.5 1.5h3h2q15 0 17 -14t-4 -23
q-5 -13 -17 -13q-1 0 -7 2q-3 2 -9 2q-5 0 -15 -2l-1 -1q-2 0 -3 -1q-6 -2 -9 -2q-2 0 -2 1q-6 1 -20 1q-10 0 -32 -2t-31 -2h-5q-15 0 -36 3q-6 1 -11 8.5t-5 15.5v5v1q1 1 1 2q6 46 4 126q0 9 2 29l2 20v25q2 56 6 110q3 28 -1 63q-4 69 -2 205v23q0 46 -3 88q-1 6 -1 18
t-1 18q0 5 -1 8q0 3 -0.5 9t-0.5 8q1 5 5.5 11t8.5 6h1q9 0 21 3q4 0 12 0.5t12 0.5h10q27 -3 56 -3q8 -1 26 -1h5q3 0 8 -0.5t8 -1.5q7 -1 12 -10q5 -6 3 -14q-5 -18 -18 -18h-5q-21 7 -51 7h-24q-14 -2 -29 0q-2 0 -4 1h-2q-9 0 -16 -5v-20v-51v-42q0 -21 -1 -33v-74
q0 -34 1 -51v-19q14 0 20 1q40 4 59 5q4 0 7 1q2 0 6 0.5t5 0.5q13 0 22 -9l2 -2v-2q-5 -35 -23 -35q-1 0 -13 2q-12 3 -30 3q-23 0 -55 -9v-3q8 -50 0 -135q-3 -39 -3 -82v-117v-48z" />
    <glyph glyph-name="eacute" unicode="&#xe9;" 
d="M91 849q9 2 12 4q64 32 133 47q2 1 5.5 2.5t4.5 1.5q14 9 4 27q-7 11 -19 5q-4 -2 -21 -9.5l-26 -11.5l-46 -17t-36 -13q-14 -6 -19 -11t-1 -16zM95 42h13q22 2 37 4q6 0 9 1h16h6h13q22 0 35 4q2 0 5 0.5t5.5 1t4.5 1.5h3h2q15 0 17 -14t-4 -23q-5 -13 -17 -13
q-1 0 -7 2q-3 2 -9 2q-5 0 -15 -2l-1 -1q-2 0 -3 -1q-6 -2 -9 -2q-2 0 -2 1q-6 1 -20 1q-10 0 -32 -2t-31 -2h-5q-15 0 -36 3q-6 1 -11 8.5t-5 15.5v5v1q1 1 1 2q6 46 4 126q0 9 2 29l2 20v25q2 56 6 110q3 28 -1 63q-4 69 -2 205v23q0 46 -3 88q-1 6 -1 18t-1 18q0 5 -1 8
q0 3 -0.5 9t-0.5 8q1 5 5.5 11t8.5 6h1q9 0 21 3q4 0 12 0.5t12 0.5h10q27 -3 56 -3q8 -1 26 -1h5q3 0 8 -0.5t8 -1.5q7 -1 12 -10q5 -6 3 -14q-5 -18 -18 -18h-5q-21 7 -51 7h-24q-14 -2 -29 0q-2 0 -4 1h-2q-9 0 -16 -5v-20v-51v-42q0 -21 -1 -33v-74q0 -34 1 -51v-19
q14 0 20 1q40 4 59 5q4 0 7 1q2 0 6 0.5t5 0.5q13 0 22 -9l2 -2v-2q-5 -35 -23 -35q-1 0 -13 2q-12 3 -30 3q-23 0 -55 -9v-3q8 -50 0 -135q-3 -39 -3 -82v-117v-48z" />
    <glyph glyph-name="ecircumflex" unicode="&#xea;" 
d="M52 861q2 1 6.5 2t6.5 2q14 12 43.5 25.5t39.5 19.5q20 12 40 -4q27 -21 53 -38q13 -8 23 3q11 17 -3 26l-76 51q-11 8 -24 2l-82 -39q-24 -12 -34 -20q-8 -6 -6 -16q1 -3 6.5 -7.5t6.5 -6.5zM95 42h13q22 2 37 4q6 0 9 1h16h6h13q22 0 35 4q2 0 5 0.5t5.5 1t4.5 1.5h3h2
q15 0 17 -14t-4 -23q-5 -13 -17 -13q-1 0 -7 2q-3 2 -9 2q-5 0 -15 -2l-1 -1q-2 0 -3 -1q-6 -2 -9 -2q-2 0 -2 1q-6 1 -20 1q-10 0 -32 -2t-31 -2h-5q-15 0 -36 3q-6 1 -11 8.5t-5 15.5v5v1q1 1 1 2q6 46 4 126q0 9 2 29l2 20v25q2 56 6 110q3 28 -1 63q-4 69 -2 205v23
q0 46 -3 88q-1 6 -1 18t-1 18q0 5 -1 8q0 3 -0.5 9t-0.5 8q1 5 5.5 11t8.5 6h1q9 0 21 3q4 0 12 0.5t12 0.5h10q27 -3 56 -3q8 -1 26 -1h5q3 0 8 -0.5t8 -1.5q7 -1 12 -10q5 -6 3 -14q-5 -18 -18 -18h-5q-21 7 -51 7h-24q-14 -2 -29 0q-2 0 -4 1h-2q-9 0 -16 -5v-20v-51v-42
q0 -21 -1 -33v-74q0 -34 1 -51v-19q14 0 20 1q40 4 59 5q4 0 7 1q2 0 6 0.5t5 0.5q13 0 22 -9l2 -2v-2q-5 -35 -23 -35q-1 0 -13 2q-12 3 -30 3q-23 0 -55 -9v-3q8 -50 0 -135q-3 -39 -3 -82v-117v-48z" />
    <glyph glyph-name="edieresis" unicode="&#xeb;" 
d="M258 909q0 16 -12 25q-8 0 -22 -7.5t-17 -14.5q-1 0 0 -15q-2 -1 1.5 -5.5t13 -10t21.5 -7.5q11 9 14 28q0 4 1 7zM119 909q0 17 -12 22q-7 2 -22 -4.5t-18 -13.5v-3q-2 -10 6 -21t19 -13q9 -2 16.5 4.5t8.5 17.5q0 2 0.5 5.5t1.5 5.5zM95 42h13q22 2 37 4q6 0 9 1h16h6
h13q22 0 35 4q2 0 5 0.5t5.5 1t4.5 1.5h3h2q15 0 17 -14t-4 -23q-5 -13 -17 -13q-1 0 -7 2q-3 2 -9 2q-5 0 -15 -2l-1 -1q-2 0 -3 -1q-6 -2 -9 -2q-2 0 -2 1q-6 1 -20 1q-10 0 -32 -2t-31 -2h-5q-15 0 -36 3q-6 1 -11 8.5t-5 15.5v5v1q1 1 1 2q6 46 4 126q0 9 2 29l2 20v25
q2 56 6 110q3 28 -1 63q-4 69 -2 205v23q0 46 -3 88q-1 6 -1 18t-1 18q0 5 -1 8q0 3 -0.5 9t-0.5 8q1 5 5.5 11t8.5 6h1q9 0 21 3q4 0 12 0.5t12 0.5h10q27 -3 56 -3q8 -1 26 -1h5q3 0 8 -0.5t8 -1.5q7 -1 12 -10q5 -6 3 -14q-5 -18 -18 -18h-5q-21 7 -51 7h-24
q-14 -2 -29 0q-2 0 -4 1h-2q-9 0 -16 -5v-20v-51v-42q0 -21 -1 -33v-74q0 -34 1 -51v-19q14 0 20 1q40 4 59 5q4 0 7 1q2 0 6 0.5t5 0.5q13 0 22 -9l2 -2v-2q-5 -35 -23 -35q-1 0 -13 2q-12 3 -30 3q-23 0 -55 -9v-3q8 -50 0 -135q-3 -39 -3 -82v-117v-48z" />
    <glyph glyph-name="igrave" unicode="&#xec;" horiz-adv-x="187" 
d="M116 847q-8 2 -11 4q-62 34 -127 49q-2 0 -5 2t-4 2q-6 4 -7 12.5t3 15.5q7 12 18 6q30 -16 45 -22q15 -7 42 -17.5t36 -14.5q12 -5 18 -11q2 -2 2.5 -7.5t-1.5 -9.5zM98 8q1 0 6 -2.5t8 -3.5q18 -5 20 13q1 6 1 19q0 9 -1.5 32.5t-2 43.5t-0.5 32v29.5v27v19.5l4 67.5
t4 75.5q1 51 -2 231l-3 155q0 22 -2 33q-2 12 -10 18q-11 8 -23 -5q-2 -6 -1 -10q4 -20 5 -45t1 -55.5t1 -43.5q1 -20 1 -85.5t2 -90.5q5 -72 -4 -190q-7 -86 -6 -128q2 -74 2 -137z" />
    <glyph glyph-name="iacute" unicode="&#xed;" horiz-adv-x="185" 
d="M93 849q9 2 12 4q64 32 133 47q2 1 5.5 2.5t4.5 1.5q14 9 4 27q-7 11 -19 5q-4 -2 -21 -9.5l-26 -11.5l-46 -17t-36 -13q-14 -6 -19 -11t-1 -16zM84 8q1 0 6 -2.5t8 -3.5q18 -5 20 13q1 6 1 19q0 9 -1.5 32.5t-2 43.5t-0.5 32v29.5v27v19.5l4 67.5t4 75.5q1 51 -2 231
l-3 155q0 22 -2 33q-2 12 -10 18q-11 8 -23 -5q-2 -6 -1 -10q4 -20 5 -45t1 -55.5t1 -43.5q1 -20 1 -85.5t2 -90.5q5 -72 -4 -190q-7 -86 -6 -128q2 -74 2 -137z" />
    <glyph glyph-name="icircumflex" unicode="&#xee;" horiz-adv-x="191" 
d="M-15 818q2 1 6.5 2t6.5 2q14 12 43.5 25.5t39.5 19.5q20 12 40 -4q27 -21 53 -38q13 -8 23 3q11 17 -3 26l-76 51q-11 8 -24 2l-82 -39q-24 -12 -34 -20q-8 -6 -6 -16q1 -3 6.5 -7.5t6.5 -6.5zM82 8q1 0 6 -2.5t8 -3.5q18 -5 20 13q1 6 1 19q0 9 -1.5 32.5t-2 43.5
t-0.5 32v29.5v27v19.5l4 67.5t4 75.5q1 51 -2 231l-3 155q0 22 -2 33q-2 12 -10 18q-11 8 -23 -5q-2 -6 -1 -10q4 -20 5 -45t1 -55.5t1 -43.5q1 -20 1 -85.5t2 -90.5q5 -72 -4 -190q-7 -86 -6 -128q2 -74 2 -137z" />
    <glyph glyph-name="idieresis" unicode="&#xef;" horiz-adv-x="193" 
d="M193 890q0 16 -12 25q-8 0 -22 -7.5t-17 -14.5q-1 0 0 -15q-2 -1 1.5 -5.5t13 -10t21.5 -7.5q11 9 14 28q0 4 1 7zM54 890q0 18 -12 22q-7 2 -22 -4.5t-18 -13.5v-3q-2 -10 6 -21t19 -13q9 -2 16.5 4.5t8.5 17.5q0 2 0.5 5.5t1.5 5.5zM79 8q1 0 6 -2.5t8 -3.5
q18 -5 20 13q1 6 1 19q0 9 -1.5 32.5t-2 43.5t-0.5 32v29.5v27v19.5l4 67.5t4 75.5q1 51 -2 231l-3 155q0 22 -2 33q-2 12 -10 18q-11 8 -23 -5q-2 -6 -1 -10q4 -20 5 -45t1 -55.5t1 -43.5q1 -20 1 -85.5t2 -90.5q5 -72 -4 -190q-7 -86 -6 -128q2 -74 2 -137z" />
    <glyph glyph-name="ograve" unicode="&#xf2;" horiz-adv-x="333" 
d="M214 847q-8 2 -11 4q-62 34 -127 49q-1 0 -4 2t-5 2q-6 4 -7 12.5t3 15.5q7 12 18 6q30 -16 45 -22q15 -7 42 -17.5t36 -14.5q12 -5 18 -11q2 -2 2.5 -7.5t-1.5 -9.5zM60 200v-102q0 -40 31 -69q34 -32 91 -39q33 -3 61.5 20t37.5 59q16 63 19 146q2 80 0 242
q0 150 -2 226q-2 68 -51 100q-22 14 -57 24q-29 8 -39 2q-5 -3 -9 -8q-1 -2 -3 -2.5t-5 -0.5t-5 -1q-26 -13 -38 -32q-30 -49 -37 -87q-6 -40 -14 -113q0 -6 0.5 -12.5t1.5 -15t1 -13.5q2 -14 2 -22q1 -11 2.5 -32t2.5 -38t1 -32q2 -39 5 -108zM269 402v-15q3 -20 3 -42
t-1.5 -48.5t-1.5 -41.5q0 -8 1 -11q2 -21 0 -43t-6 -50t-5 -42q-4 -37 -39 -74q-11 -13 -35 -9q-29 4 -47 12q-47 22 -47 72v89q0 22 -1 46t-2.5 53t-2.5 45q-6 96 -8 144q-1 4 -1 11.5v10.5q-12 62 11 168q6 37 28 64q14 19 34 23q4 1 14 5l15 6q9 2 13 0q37 -20 45 -26
q30 -24 30 -61v-37q0 -8 2 -30.5t2 -33.5q1 -34 -1 -98v-34v-53z" />
    <glyph glyph-name="oacute" unicode="&#xf3;" horiz-adv-x="333" 
d="M131 849q9 2 12 4q64 32 133 47q2 1 5.5 2.5t4.5 1.5q14 9 4 27q-7 11 -19 5q-4 -2 -21 -9.5l-26 -11.5l-46 -17t-36 -13q-14 -6 -19 -11t-1 -16zM60 200v-102q0 -40 31 -69q34 -32 91 -39q33 -3 61.5 20t37.5 59q16 63 19 146q2 80 0 242q0 150 -2 226q-2 68 -51 100
q-22 14 -57 24q-29 8 -39 2q-5 -3 -9 -8q-1 -2 -3 -2.5t-5 -0.5t-5 -1q-26 -13 -38 -32q-30 -49 -37 -87q-6 -40 -14 -113q0 -6 0.5 -12.5t1.5 -15t1 -13.5q2 -14 2 -22q1 -11 2.5 -32t2.5 -38t1 -32q2 -39 5 -108zM269 402v-15q3 -20 3 -42t-1.5 -48.5t-1.5 -41.5
q0 -8 1 -11q2 -21 0 -43t-6 -50t-5 -42q-4 -37 -39 -74q-11 -13 -35 -9q-29 4 -47 12q-47 22 -47 72v89q0 22 -1 46t-2.5 53t-2.5 45q-6 96 -8 144q-1 4 -1 11.5v10.5q-12 62 11 168q6 37 28 64q14 19 34 23q4 1 14 5l15 6q9 2 13 0q37 -20 45 -26q30 -24 30 -61v-37
q0 -8 2 -30.5t2 -33.5q1 -34 -1 -98v-34v-53z" />
    <glyph glyph-name="ocircumflex" unicode="&#xf4;" horiz-adv-x="333" 
d="M82 843q2 1 6.5 2t6.5 2q14 12 43.5 25.5t39.5 19.5q20 12 40 -4q27 -21 53 -38q13 -8 23 3q11 17 -3 26l-76 51q-11 8 -24 2l-82 -39q-24 -12 -34 -20q-8 -6 -6 -16q1 -3 6.5 -7.5t6.5 -6.5zM60 200v-102q0 -40 31 -69q34 -32 91 -39q33 -3 61.5 20t37.5 59
q16 63 19 146q2 80 0 242q0 150 -2 226q-2 68 -51 100q-22 14 -57 24q-29 8 -39 2q-5 -3 -9 -8q-1 -2 -3 -2.5t-5 -0.5t-5 -1q-26 -13 -38 -32q-30 -49 -37 -87q-6 -40 -14 -113q0 -6 0.5 -12.5t1.5 -15t1 -13.5q2 -14 2 -22q1 -11 2.5 -32t2.5 -38t1 -32q2 -39 5 -108z
M269 402v-15q3 -20 3 -42t-1.5 -48.5t-1.5 -41.5q0 -8 1 -11q2 -21 0 -43t-6 -50t-5 -42q-4 -37 -39 -74q-11 -13 -35 -9q-29 4 -47 12q-47 22 -47 72v89q0 22 -1 46t-2.5 53t-2.5 45q-6 96 -8 144q-1 4 -1 11.5v10.5q-12 62 11 168q6 37 28 64q14 19 34 23q4 1 14 5l15 6
q9 2 13 0q37 -20 45 -26q30 -24 30 -61v-37q0 -8 2 -30.5t2 -33.5q1 -34 -1 -98v-34v-53z" />
    <glyph glyph-name="otilde" unicode="&#xf5;" horiz-adv-x="333" 
d="M55 891q8 -21 12 -23t15 9q19 19 49 12l63 -15q4 -1 26 -1q11 0 22.5 4t25.5 10t22 9q7 2 8.5 11.5t-4.5 17.5l-12 9q-45 -44 -106 -26q-10 3 -39 10q-51 12 -82 -27zM60 200v-102q0 -40 31 -69q34 -32 91 -39q33 -3 61.5 20t37.5 59q16 63 19 146q2 80 0 242
q0 150 -2 226q-2 68 -51 100q-22 14 -57 24q-29 8 -39 2q-5 -3 -9 -8q-1 -2 -3 -2.5t-5 -0.5t-5 -1q-26 -13 -38 -32q-30 -49 -37 -87q-6 -40 -14 -113q0 -6 0.5 -12.5t1.5 -15t1 -13.5q2 -14 2 -22q1 -11 2.5 -32t2.5 -38t1 -32q2 -39 5 -108zM269 402v-15q3 -20 3 -42
t-1.5 -48.5t-1.5 -41.5q0 -8 1 -11q2 -21 0 -43t-6 -50t-5 -42q-4 -37 -39 -74q-11 -13 -35 -9q-29 4 -47 12q-47 22 -47 72v89q0 22 -1 46t-2.5 53t-2.5 45q-6 96 -8 144q-1 4 -1 11.5v10.5q-12 62 11 168q6 37 28 64q14 19 34 23q4 1 14 5l15 6q9 2 13 0q37 -20 45 -26
q30 -24 30 -61v-37q0 -8 2 -30.5t2 -33.5q1 -34 -1 -98v-34v-53z" />
    <glyph glyph-name="odieresis" unicode="&#xf6;" horiz-adv-x="333" 
d="M273 897q0 16 -12 25q-8 0 -22 -7.5t-17 -14.5q-1 0 0 -15q-2 -1 1.5 -5.5t13 -10t21.5 -7.5q11 9 14 28q0 4 1 7zM134 897q0 17 -12 22q-7 2 -22 -4.5t-18 -13.5v-3q-2 -10 6 -21t19 -13q9 -2 16.5 4.5t8.5 17.5q0 2 0.5 5.5t1.5 5.5zM60 200v-102q0 -40 31 -69
q34 -32 91 -39q33 -3 61.5 20t37.5 59q16 63 19 146q2 80 0 242q0 150 -2 226q-2 68 -51 100q-22 14 -57 24q-29 8 -39 2q-5 -3 -9 -8q-1 -2 -3 -2.5t-5 -0.5t-5 -1q-26 -13 -38 -32q-30 -49 -37 -87q-6 -40 -14 -113q0 -6 0.5 -12.5t1.5 -15t1 -13.5q2 -14 2 -22
q1 -11 2.5 -32t2.5 -38t1 -32q2 -39 5 -108zM269 402v-15q3 -20 3 -42t-1.5 -48.5t-1.5 -41.5q0 -8 1 -11q2 -21 0 -43t-6 -50t-5 -42q-4 -37 -39 -74q-11 -13 -35 -9q-29 4 -47 12q-47 22 -47 72v89q0 22 -1 46t-2.5 53t-2.5 45q-6 96 -8 144q-1 4 -1 11.5v10.5
q-12 62 11 168q6 37 28 64q14 19 34 23q4 1 14 5l15 6q9 2 13 0q37 -20 45 -26q30 -24 30 -61v-37q0 -8 2 -30.5t2 -33.5q1 -34 -1 -98v-34v-53z" />
    <glyph glyph-name="divide" unicode="&#xf7;" horiz-adv-x="343" 
d="M160 419h10q16 0 21 13q1 7 -6.5 20t-14.5 15q-1 1 -2 1q-11 1 -20.5 -7.5t-10.5 -19.5q-1 -8 6 -14.5t17 -7.5zM292 339q0 3 1 7t0 6q-3 10 -12 16t-19 5q-4 0 -12 -1t-14.5 -1.5t-12.5 -0.5q-25 -1 -74.5 -2.5t-74.5 -2.5q-22 -3 -25 -4q-9 -4 -9 -15q-1 -9 6.5 -15.5
t17.5 -4.5q6 1 25 5t30 4q9 1 37.5 3t42 2.5t36 -0.5t41.5 -4q1 0 16 3zM176 233h6q15 1 22 13q0 8 -8 21t-15 15q0 1 -14 -2q-1 2 -5 -1.5t-8.5 -13t-6.5 -20.5q10 -10 29 -12z" />
    <glyph glyph-name="ugrave" unicode="&#xf9;" horiz-adv-x="320" 
d="M221 847q-8 2 -11 4q-62 34 -127 49q-2 0 -5 2t-4 2q-6 4 -7 12.5t3 15.5q7 12 18 6q30 -16 45 -22q15 -7 42 -17.5t36 -14.5q12 -5 18 -11q2 -2 2.5 -7.5t-1.5 -9.5zM60 797v-54q3 -251 3 -252q5 -162 4 -278q-1 -18 -1 -52.5v-52.5q0 -33 18 -60q1 -1 5.5 -8.5
t7.5 -11.5q36 -45 78 -42q13 2 25 0q35 -2 62 29.5t26 79.5q-1 29 3 82q10 108 9 189q-1 25 0 72t1 62q0 42 -0.5 126.5t-0.5 125.5q0 12 -1 18q-2 12 -13 14q-15 2 -17 -11q-3 -12 -1 -26q4 -151 5 -230q1 -23 -2 -141q0 -6 0.5 -17t0.5 -17q2 -18 2 -27q-5 -74 -7 -100
q-1 -12 -4.5 -39.5t-5 -48t-0.5 -40.5q2 -33 -19 -49q-39 -31 -81 -15q-37 12 -53 54q-11 26 -11 62q0 68 2 101q2 19 0 97.5t-2 97.5q0 35 -2.5 105.5t-3 105.5t2.5 105v32q-1 18 -18 19q-2 0 -12 -5z" />
    <glyph glyph-name="uacute" unicode="&#xfa;" horiz-adv-x="320" 
d="M153 849q9 2 12 4q64 32 133 47q2 1 5.5 2.5t4.5 1.5q14 9 4 27q-7 11 -19 5q-4 -2 -21 -9.5l-26 -11.5l-46 -17t-36 -13q-14 -6 -19 -11t-1 -16zM60 797v-54q3 -251 3 -252q5 -162 4 -278q-1 -18 -1 -52.5v-52.5q0 -33 18 -60q1 -1 5.5 -8.5t7.5 -11.5q36 -45 78 -42
q13 2 25 0q35 -2 62 29.5t26 79.5q-1 29 3 82q10 108 9 189q-1 25 0 72t1 62q0 42 -0.5 126.5t-0.5 125.5q0 12 -1 18q-2 12 -13 14q-15 2 -17 -11q-3 -12 -1 -26q4 -151 5 -230q1 -23 -2 -141q0 -6 0.5 -17t0.5 -17q2 -18 2 -27q-5 -74 -7 -100q-1 -12 -4.5 -39.5t-5 -48
t-0.5 -40.5q2 -33 -19 -49q-39 -31 -81 -15q-37 12 -53 54q-11 26 -11 62q0 68 2 101q2 19 0 97.5t-2 97.5q0 35 -2.5 105.5t-3 105.5t2.5 105v32q-1 18 -18 19q-2 0 -12 -5z" />
    <glyph glyph-name="ucircumflex" unicode="&#xfb;" horiz-adv-x="320" 
d="M87 851q2 1 6.5 2t6.5 2q14 12 43.5 25.5t39.5 19.5q20 12 40 -4q27 -21 53 -38q13 -8 23 3q11 17 -3 26l-76 51q-11 8 -24 2l-82 -39q-24 -12 -34 -20q-8 -6 -6 -16q1 -3 6.5 -7.5t6.5 -6.5zM60 797v-54q3 -251 3 -252q5 -162 4 -278q-1 -18 -1 -52.5v-52.5
q0 -33 18 -60q1 -1 5.5 -8.5t7.5 -11.5q36 -45 78 -42q13 2 25 0q35 -2 62 29.5t26 79.5q-1 29 3 82q10 108 9 189q-1 25 0 72t1 62q0 42 -0.5 126.5t-0.5 125.5q0 12 -1 18q-2 12 -13 14q-15 2 -17 -11q-3 -12 -1 -26q4 -151 5 -230q1 -23 -2 -141q0 -6 0.5 -17t0.5 -17
q2 -18 2 -27q-5 -74 -7 -100q-1 -12 -4.5 -39.5t-5 -48t-0.5 -40.5q2 -33 -19 -49q-39 -31 -81 -15q-37 12 -53 54q-11 26 -11 62q0 68 2 101q2 19 0 97.5t-2 97.5q0 35 -2.5 105.5t-3 105.5t2.5 105v32q-1 18 -18 19q-2 0 -12 -5z" />
    <glyph glyph-name="udieresis" unicode="&#xfc;" horiz-adv-x="320" 
d="M281 903q0 16 -12 25q-8 0 -22 -7.5t-17 -14.5q-1 0 0 -15q-2 -1 1.5 -5.5t13 -10t21.5 -7.5q11 9 14 28q0 4 1 7zM142 903q0 17 -12 22q-7 2 -22 -4.5t-18 -13.5v-3q-2 -10 6 -21t19 -13q9 -2 16.5 4.5t8.5 17.5q0 2 0.5 5.5t1.5 5.5zM60 797v-54q3 -251 3 -252
q5 -162 4 -278q-1 -18 -1 -52.5v-52.5q0 -33 18 -60q1 -1 5.5 -8.5t7.5 -11.5q36 -45 78 -42q13 2 25 0q35 -2 62 29.5t26 79.5q-1 29 3 82q10 108 9 189q-1 25 0 72t1 62q0 42 -0.5 126.5t-0.5 125.5q0 12 -1 18q-2 12 -13 14q-15 2 -17 -11q-3 -12 -1 -26q4 -151 5 -230
q1 -23 -2 -141q0 -6 0.5 -17t0.5 -17q2 -18 2 -27q-5 -74 -7 -100q-1 -12 -4.5 -39.5t-5 -48t-0.5 -40.5q2 -33 -19 -49q-39 -31 -81 -15q-37 12 -53 54q-11 26 -11 62q0 68 2 101q2 19 0 97.5t-2 97.5q0 35 -2.5 105.5t-3 105.5t2.5 105v32q-1 18 -18 19q-2 0 -12 -5z" />
    <glyph glyph-name="circumflex" unicode="&#x2c6;" horiz-adv-x="600" 
d="M82 843q2 1 6.5 2t6.5 2q14 12 43.5 25.5t39.5 19.5q20 12 40 -4q27 -21 53 -38q13 -8 23 3q11 17 -3 26l-76 51q-11 8 -24 2l-82 -39q-24 -12 -34 -20q-8 -6 -6 -16q1 -3 6.5 -7.5t6.5 -6.5z" />
    <glyph glyph-name="ring" unicode="&#x2da;" horiz-adv-x="600" 
d="M128 882q3 -27 30 -37q1 0 4.5 -0.5t6.5 -0.5q14 -4 23 5q7 7 14 25t6 28q-5 18 -20.5 32t-37.5 11q-8 -1 -13 -4t-6.5 -5.5t-4.5 -9.5q-2 -5 -2 -44zM185 883l-4 -6q-6 -8 -17 -3t-13 14q-3 14 4 26l1 1q2 1 4.5 2.5t4.5 1.5q13 0 19 -12.5t1 -23.5z" />
    <glyph glyph-name="tilde" unicode="&#x2dc;" horiz-adv-x="600" 
d="M182 753q8 -21 12 -23t15 9q19 19 49 12l63 -15q4 -1 26 -1q11 0 22.5 4t25.5 10t22 9q7 2 8.5 11.5t-4.5 17.5q-2 3 -7 6l-5 3q-45 -44 -106 -26q-10 3 -39 10q-51 12 -82 -27z" />
    <glyph glyph-name="endash" unicode="&#x2013;" horiz-adv-x="343" 
d="M292 339q0 3 1 7t0 6q-3 10 -12 16t-19 5q-4 0 -12 -1t-14.5 -1.5t-12.5 -0.5q-25 -1 -74.5 -2.5t-74.5 -2.5q-22 -3 -25 -4q-9 -4 -9 -15q-1 -9 6.5 -15.5t17.5 -4.5q6 1 25 5t30 4q9 1 37.5 3t42 2.5t36 -0.5t41.5 -4q1 0 16 3z" />
    <glyph glyph-name="emdash" unicode="&#x2014;" horiz-adv-x="497" 
d="M45 362q-2 -6 -4 -14q-3 -18 8 -20q4 -1 11 -1q8 1 25 2t26 2l19 1q19 0 19 -1q10 -1 38 -4t44 -4q19 -1 117 2l86 3q2 0 9.5 0.5t10.5 1.5q8 2 11 10q5 13 -3 24h-6q-12 -4 -25 -5t-29.5 -1t-24.5 -1q-84 -3 -85 -3q-46 -5 -110 4q-52 7 -69 6q-44 -2 -68 -2z" />
    <glyph glyph-name="quoteleft" unicode="&#x2018;" horiz-adv-x="177" 
d="M177 809q-12 14 -14 16q-8 5 -16 -4l-48 -44q-22 -18 -44 -38q-8 -7 -2 -16q8 -11 19 -8q4 1 9 6q58 56 86 72q1 0 10 16z" />
    <glyph glyph-name="quoteright" unicode="&#x2019;" horiz-adv-x="155" 
d="M29 831q7 -6 21.5 -17t21.5 -17l46 -36q6 -6 16 -20q7 -11 -8 -22q-4 -3 -10 -2t-9 5q-21 33 -80 68q-5 3 -13 11q-11 12 2 22q0 1 13 8z" />
    <glyph glyph-name="quotedblleft" unicode="&#x201c;" horiz-adv-x="150" 
d="M140 865q-12 14 -14 16q-8 5 -16 -4l-48 -44q-22 -18 -44 -38q-8 -7 -2 -16q8 -11 19 -8q5 1 9 6q58 56 86 72q1 0 10 16zM197 809q-12 14 -14 16q-8 5 -16 -4l-48 -44q-22 -18 -44 -38q-8 -7 -2 -16q8 -11 19 -8q4 1 9 6q58 56 86 72q1 0 10 16z" />
    <glyph glyph-name="quotedblright" unicode="&#x201d;" horiz-adv-x="150" 
d="M53 891q7 -6 21.5 -17t21.5 -17l46 -36q6 -6 16 -20q7 -11 -8 -22q-4 -3 -10 -2t-9 5q-21 33 -80 68q-5 3 -13 11q-11 12 2 22q0 1 13 8zM-1 831q7 -6 21.5 -17t21.5 -17l46 -36q6 -6 16 -20q7 -11 -8 -22q-4 -3 -10 -2t-9 5q-21 33 -80 68q-5 3 -13 11q-11 12 2 22
q0 1 13 8z" />
    <glyph glyph-name="ellipsis" unicode="&#x2026;" horiz-adv-x="300" 
d="M67 52q-11 0 -19 -7t-8 -16q1 -9 10.5 -19t18.5 -10q11 0 18.5 10.5t6.5 23.5q-2 20 -27 18zM154 52q-11 0 -19 -7t-8 -16q1 -9 10.5 -19t18.5 -10q11 0 18.5 10.5t6.5 23.5q-2 20 -27 18zM238 52q-11 0 -19 -7t-8 -16q1 -9 10.5 -19t18.5 -10q11 0 18.5 10.5t6.5 23.5
q-2 20 -27 18z" />
    </font>
</defs>
</svg>
